<svg xmlns="http://www.w3.org/2000/svg" width="1600" height="992" viewBox="0 0 1000 620"><title>Kepler-11 g — landscape illustration</title><defs><pattern id="grain" width="9" height="11" patternUnits="userSpaceOnUse"><path d="M1 2h1M5 7h1M8 4h1" stroke="#efe1c8" stroke-width=".8"/></pattern></defs><rect width="1000" height="620" fill="#071b24"/><circle cx="716" cy="274" r="1" fill="#dedfc2" opacity="0.21"/><circle cx="205" cy="180" r="1.8" fill="#dedfc2" opacity="0.54"/><circle cx="464" cy="133" r="1" fill="#dedfc2" opacity="0.64"/><circle cx="186" cy="99" r="1.3" fill="#dedfc2" opacity="0.39"/><circle cx="328" cy="170" r="0.8" fill="#dedfc2" opacity="0.52"/><circle cx="90" cy="283" r="1.8" fill="#dedfc2" opacity="0.26"/><circle cx="216" cy="260" r="0.8" fill="#dedfc2" opacity="0.60"/><circle cx="708" cy="214" r="1" fill="#dedfc2" opacity="0.22"/><circle cx="160" cy="209" r="1" fill="#dedfc2" opacity="0.64"/><circle cx="348" cy="32" r="1" fill="#dedfc2" opacity="0.54"/><circle cx="391" cy="178" r="0.8" fill="#dedfc2" opacity="0.25"/><circle cx="24" cy="293" r="1" fill="#dedfc2" opacity="0.60"/><circle cx="387" cy="103" r="1" fill="#dedfc2" opacity="0.33"/><circle cx="420" cy="202" r="1.8" fill="#dedfc2" opacity="0.26"/><circle cx="898" cy="70" r="0.8" fill="#dedfc2" opacity="0.64"/><circle cx="402" cy="196" r="0.8" fill="#dedfc2" opacity="0.32"/><circle cx="103" cy="138" r="1" fill="#dedfc2" opacity="0.44"/><circle cx="895" cy="155" r="1.8" fill="#dedfc2" opacity="0.44"/><circle cx="835" cy="245" r="1.8" fill="#dedfc2" opacity="0.50"/><circle cx="948" cy="250" r="1.3" fill="#dedfc2" opacity="0.42"/><circle cx="81" cy="96" r="1" fill="#dedfc2" opacity="0.61"/><circle cx="704" cy="167" r="1.8" fill="#dedfc2" opacity="0.60"/><circle cx="213" cy="113" r="1.8" fill="#dedfc2" opacity="0.50"/><circle cx="154" cy="38" r="0.8" fill="#dedfc2" opacity="0.18"/><circle cx="279" cy="239" r="1" fill="#dedfc2" opacity="0.16"/><circle cx="671" cy="204" r="1.8" fill="#dedfc2" opacity="0.39"/><circle cx="721" cy="133" r="1" fill="#dedfc2" opacity="0.54"/><circle cx="589" cy="71" r="1.3" fill="#dedfc2" opacity="0.22"/><circle cx="66" cy="277" r="1.3" fill="#dedfc2" opacity="0.25"/><circle cx="884" cy="128" r="1.3" fill="#dedfc2" opacity="0.54"/><circle cx="666" cy="117" r="0.8" fill="#dedfc2" opacity="0.32"/><circle cx="874" cy="27" r="1.8" fill="#dedfc2" opacity="0.49"/><circle cx="143" cy="195" r="1" fill="#dedfc2" opacity="0.24"/><circle cx="98" cy="145" r="1.3" fill="#dedfc2" opacity="0.54"/><circle cx="513" cy="301" r="1.8" fill="#dedfc2" opacity="0.60"/><circle cx="790" cy="283" r="0.8" fill="#dedfc2" opacity="0.63"/><circle cx="40" cy="170" r="1" fill="#dedfc2" opacity="0.56"/><circle cx="317" cy="220" r="0.8" fill="#dedfc2" opacity="0.55"/><circle cx="652" cy="223" r="0.8" fill="#dedfc2" opacity="0.58"/><circle cx="466" cy="99" r="1" fill="#dedfc2" opacity="0.19"/><circle cx="582" cy="43" r="1.3" fill="#dedfc2" opacity="0.61"/><circle cx="192" cy="285" r="0.8" fill="#dedfc2" opacity="0.29"/><circle cx="409" cy="211" r="1.3" fill="#dedfc2" opacity="0.34"/><circle cx="775" cy="142" r="1.8" fill="#dedfc2" opacity="0.31"/><circle cx="32" cy="232" r="1.8" fill="#dedfc2" opacity="0.53"/><circle cx="478" cy="179.79999999999998" r="30.00108724782324" fill="#67908c" opacity=".09"/><circle cx="478" cy="179.79999999999998" r="23.438349412361905" fill="#dedfc2"/><path d="M 0.0,310.0 L 41.7,324.7 L 83.3,328.3 L 125.0,330.9 L 166.7,338.3 L 208.3,321.2 L 250.0,302.1 L 291.7,289.3 L 333.3,290.0 L 375.0,287.8 L 416.7,293.1 L 458.3,305.1 L 500.0,319.8 L 541.7,320.7 L 583.3,324.9 L 625.0,333.9 L 666.7,338.2 L 708.3,311.2 L 750.0,301.4 L 791.7,297.8 L 833.3,303.9 L 875.0,289.0 L 916.7,291.2 L 958.3,314.9 L 1000.0,318.0 L1000,620 L0,620Z" fill="#254955"/><path d="M 0.0,314.0 L 41.7,328.7 L 83.3,332.3 L 125.0,334.9 L 166.7,342.3 L 208.3,325.2 L 250.0,306.1 L 291.7,293.3 L 333.3,294.0 L 375.0,291.8 L 416.7,297.1 L 458.3,309.1 L 500.0,323.8 L 541.7,324.7 L 583.3,328.9 L 625.0,337.9 L 666.7,342.2 L 708.3,315.2 L 750.0,305.4 L 791.7,301.8 L 833.3,307.9 L 875.0,293.0 L 916.7,295.2 L 958.3,318.9 L 1000.0,322.0" fill="none" stroke="#071b24" stroke-opacity=".15" stroke-width="1.3"/><path d="M 0.0,319.0 L 41.7,333.7 L 83.3,337.3 L 125.0,339.9 L 166.7,347.3 L 208.3,330.2 L 250.0,311.1 L 291.7,298.3 L 333.3,299.0 L 375.0,296.8 L 416.7,302.1 L 458.3,314.1 L 500.0,328.8 L 541.7,329.7 L 583.3,333.9 L 625.0,342.9 L 666.7,347.2 L 708.3,320.2 L 750.0,310.4 L 791.7,306.8 L 833.3,312.9 L 875.0,298.0 L 916.7,300.2 L 958.3,323.9 L 1000.0,327.0" fill="none" stroke="#071b24" stroke-opacity=".15" stroke-width="1.3"/><path d="M 0.0,351.7 L 41.7,362.5 L 83.3,339.9 L 125.0,338.4 L 166.7,342.0 L 208.3,321.3 L 250.0,304.2 L 291.7,303.8 L 333.3,322.5 L 375.0,314.2 L 416.7,321.0 L 458.3,343.5 L 500.0,356.4 L 541.7,341.5 L 583.3,342.6 L 625.0,351.5 L 666.7,332.2 L 708.3,310.9 L 750.0,306.5 L 791.7,321.3 L 833.3,304.4 L 875.0,319.9 L 916.7,336.4 L 958.3,345.4 L 1000.0,337.7 L1000,620 L0,620Z" fill="#67908c"/><path d="M 0.0,355.7 L 41.7,366.5 L 83.3,343.9 L 125.0,342.4 L 166.7,346.0 L 208.3,325.3 L 250.0,308.2 L 291.7,307.8 L 333.3,326.5 L 375.0,318.2 L 416.7,325.0 L 458.3,347.5 L 500.0,360.4 L 541.7,345.5 L 583.3,346.6 L 625.0,355.5 L 666.7,336.2 L 708.3,314.9 L 750.0,310.5 L 791.7,325.3 L 833.3,308.4 L 875.0,323.9 L 916.7,340.4 L 958.3,349.4 L 1000.0,341.7" fill="none" stroke="#071b24" stroke-opacity=".15" stroke-width="1.3"/><path d="M 0.0,360.7 L 41.7,371.5 L 83.3,348.9 L 125.0,347.4 L 166.7,351.0 L 208.3,330.3 L 250.0,313.2 L 291.7,312.8 L 333.3,331.5 L 375.0,323.2 L 416.7,330.0 L 458.3,352.5 L 500.0,365.4 L 541.7,350.5 L 583.3,351.6 L 625.0,360.5 L 666.7,341.2 L 708.3,319.9 L 750.0,315.5 L 791.7,330.3 L 833.3,313.4 L 875.0,328.9 L 916.7,345.4 L 958.3,354.4 L 1000.0,346.7" fill="none" stroke="#071b24" stroke-opacity=".15" stroke-width="1.3"/><path d="M 0.0,384.0 L 41.7,357.2 L 83.3,356.5 L 125.0,357.1 L 166.7,350.2 L 208.3,328.5 L 250.0,319.4 L 291.7,343.0 L 333.3,343.3 L 375.0,345.2 L 416.7,359.0 L 458.3,381.1 L 500.0,371.4 L 541.7,370.9 L 583.3,360.9 L 625.0,352.7 L 666.7,325.9 L 708.3,322.9 L 750.0,328.4 L 791.7,341.6 L 833.3,338.0 L 875.0,356.8 L 916.7,366.2 L 958.3,379.0 L 1000.0,373.7 L1000,620 L0,620Z" fill="#dedfc2"/><path d="M 0.0,388.0 L 41.7,361.2 L 83.3,360.5 L 125.0,361.1 L 166.7,354.2 L 208.3,332.5 L 250.0,323.4 L 291.7,347.0 L 333.3,347.3 L 375.0,349.2 L 416.7,363.0 L 458.3,385.1 L 500.0,375.4 L 541.7,374.9 L 583.3,364.9 L 625.0,356.7 L 666.7,329.9 L 708.3,326.9 L 750.0,332.4 L 791.7,345.6 L 833.3,342.0 L 875.0,360.8 L 916.7,370.2 L 958.3,383.0 L 1000.0,377.7" fill="none" stroke="#071b24" stroke-opacity=".15" stroke-width="1.3"/><path d="M 0.0,393.0 L 41.7,366.2 L 83.3,365.5 L 125.0,366.1 L 166.7,359.2 L 208.3,337.5 L 250.0,328.4 L 291.7,352.0 L 333.3,352.3 L 375.0,354.2 L 416.7,368.0 L 458.3,390.1 L 500.0,380.4 L 541.7,379.9 L 583.3,369.9 L 625.0,361.7 L 666.7,334.9 L 708.3,331.9 L 750.0,337.4 L 791.7,350.6 L 833.3,347.0 L 875.0,365.8 L 916.7,375.2 L 958.3,388.0 L 1000.0,382.7" fill="none" stroke="#071b24" stroke-opacity=".15" stroke-width="1.3"/><path d="M 0.0,394.0 L 41.7,373.2 L 83.3,369.3 L 125.0,359.9 L 166.7,351.9 L 208.3,338.5 L 250.0,360.0 L 291.7,371.6 L 333.3,372.5 L 375.0,382.6 L 416.7,397.4 L 458.3,402.9 L 500.0,383.4 L 541.7,377.9 L 583.3,371.7 L 625.0,353.2 L 666.7,344.0 L 708.3,361.0 L 750.0,364.4 L 791.7,365.5 L 833.3,377.3 L 875.0,399.5 L 916.7,396.0 L 958.3,381.0 L 1000.0,381.5 L1000,620 L0,620Z" fill="#67908c"/><path d="M 0.0,398.0 L 41.7,377.2 L 83.3,373.3 L 125.0,363.9 L 166.7,355.9 L 208.3,342.5 L 250.0,364.0 L 291.7,375.6 L 333.3,376.5 L 375.0,386.6 L 416.7,401.4 L 458.3,406.9 L 500.0,387.4 L 541.7,381.9 L 583.3,375.7 L 625.0,357.2 L 666.7,348.0 L 708.3,365.0 L 750.0,368.4 L 791.7,369.5 L 833.3,381.3 L 875.0,403.5 L 916.7,400.0 L 958.3,385.0 L 1000.0,385.5" fill="none" stroke="#071b24" stroke-opacity=".15" stroke-width="1.3"/><path d="M 0.0,403.0 L 41.7,382.2 L 83.3,378.3 L 125.0,368.9 L 166.7,360.9 L 208.3,347.5 L 250.0,369.0 L 291.7,380.6 L 333.3,381.5 L 375.0,391.6 L 416.7,406.4 L 458.3,411.9 L 500.0,392.4 L 541.7,386.9 L 583.3,380.7 L 625.0,362.2 L 666.7,353.0 L 708.3,370.0 L 750.0,373.4 L 791.7,374.5 L 833.3,386.3 L 875.0,408.5 L 916.7,405.0 L 958.3,390.0 L 1000.0,390.5" fill="none" stroke="#071b24" stroke-opacity=".15" stroke-width="1.3"/><path d="M 0.0,393.7 L 41.7,382.6 L 83.3,387.8 L 125.0,379.8 L 166.7,365.4 L 208.3,372.8 L 250.0,396.3 L 291.7,399.0 L 333.3,395.5 L 375.0,410.6 L 416.7,415.6 L 458.3,399.2 L 500.0,388.6 L 541.7,392.5 L 583.3,377.5 L 625.0,372.1 L 666.7,375.7 L 708.3,391.8 L 750.0,394.5 L 791.7,396.8 L 833.3,424.0 L 875.0,415.5 L 916.7,404.1 L 958.3,394.5 L 1000.0,394.6 L1000,620 L0,620Z" fill="#12313b"/><path d="M 0.0,397.7 L 41.7,386.6 L 83.3,391.8 L 125.0,383.8 L 166.7,369.4 L 208.3,376.8 L 250.0,400.3 L 291.7,403.0 L 333.3,399.5 L 375.0,414.6 L 416.7,419.6 L 458.3,403.2 L 500.0,392.6 L 541.7,396.5 L 583.3,381.5 L 625.0,376.1 L 666.7,379.7 L 708.3,395.8 L 750.0,398.5 L 791.7,400.8 L 833.3,428.0 L 875.0,419.5 L 916.7,408.1 L 958.3,398.5 L 1000.0,398.6" fill="none" stroke="#071b24" stroke-opacity=".15" stroke-width="1.3"/><path d="M 0.0,402.7 L 41.7,391.6 L 83.3,396.8 L 125.0,388.8 L 166.7,374.4 L 208.3,381.8 L 250.0,405.3 L 291.7,408.0 L 333.3,404.5 L 375.0,419.6 L 416.7,424.6 L 458.3,408.2 L 500.0,397.6 L 541.7,401.5 L 583.3,386.5 L 625.0,381.1 L 666.7,384.7 L 708.3,400.8 L 750.0,403.5 L 791.7,405.8 L 833.3,433.0 L 875.0,424.5 L 916.7,413.1 L 958.3,403.5 L 1000.0,403.6" fill="none" stroke="#071b24" stroke-opacity=".15" stroke-width="1.3"/><path d="M 0.0,396.6 L 41.7,400.5 L 83.3,408.8 L 125.0,397.4 L 166.7,401.5 L 208.3,420.4 L 250.0,431.7 L 291.7,427.2 L 333.3,428.2 L 375.0,438.9 L 416.7,420.3 L 458.3,401.6 L 500.0,394.5 L 541.7,395.1 L 583.3,379.0 L 625.0,397.5 L 666.7,411.3 L 708.3,424.2 L 750.0,414.5 L 791.7,438.4 L 833.3,443.7 L 875.0,422.2 L 916.7,410.5 L 958.3,408.4 L 1000.0,410.7 L1000,620 L0,620Z" fill="#254955"/><path d="M 0.0,400.6 L 41.7,404.5 L 83.3,412.8 L 125.0,401.4 L 166.7,405.5 L 208.3,424.4 L 250.0,435.7 L 291.7,431.2 L 333.3,432.2 L 375.0,442.9 L 416.7,424.3 L 458.3,405.6 L 500.0,398.5 L 541.7,399.1 L 583.3,383.0 L 625.0,401.5 L 666.7,415.3 L 708.3,428.2 L 750.0,418.5 L 791.7,442.4 L 833.3,447.7 L 875.0,426.2 L 916.7,414.5 L 958.3,412.4 L 1000.0,414.7" fill="none" stroke="#071b24" stroke-opacity=".15" stroke-width="1.3"/><path d="M 0.0,405.6 L 41.7,409.5 L 83.3,417.8 L 125.0,406.4 L 166.7,410.5 L 208.3,429.4 L 250.0,440.7 L 291.7,436.2 L 333.3,437.2 L 375.0,447.9 L 416.7,429.3 L 458.3,410.6 L 500.0,403.5 L 541.7,404.1 L 583.3,388.0 L 625.0,406.5 L 666.7,420.3 L 708.3,433.2 L 750.0,423.5 L 791.7,447.4 L 833.3,452.7 L 875.0,431.2 L 916.7,419.5 L 958.3,417.4 L 1000.0,419.7" fill="none" stroke="#071b24" stroke-opacity=".15" stroke-width="1.3"/><path d="M 0.0,405.0 L 41.7,418.4 L 83.3,421.6 L 125.0,419.1 L 166.7,440.6 L 208.3,462.2 L 250.0,449.4 L 291.7,442.6 L 333.3,453.0 L 375.0,440.9 L 416.7,420.8 L 458.3,407.5 L 500.0,420.2 L 541.7,416.1 L 583.3,411.6 L 625.0,432.1 L 666.7,450.1 L 708.3,448.1 L 750.0,440.9 L 791.7,449.1 L 833.3,453.7 L 875.0,428.5 L 916.7,417.8 L 958.3,421.0 L 1000.0,419.8 L1000,620 L0,620Z" fill="#67908c"/><path d="M 0.0,409.0 L 41.7,422.4 L 83.3,425.6 L 125.0,423.1 L 166.7,444.6 L 208.3,466.2 L 250.0,453.4 L 291.7,446.6 L 333.3,457.0 L 375.0,444.9 L 416.7,424.8 L 458.3,411.5 L 500.0,424.2 L 541.7,420.1 L 583.3,415.6 L 625.0,436.1 L 666.7,454.1 L 708.3,452.1 L 750.0,444.9 L 791.7,453.1 L 833.3,457.7 L 875.0,432.5 L 916.7,421.8 L 958.3,425.0 L 1000.0,423.8" fill="none" stroke="#071b24" stroke-opacity=".15" stroke-width="1.3"/><path d="M 0.0,414.0 L 41.7,427.4 L 83.3,430.6 L 125.0,428.1 L 166.7,449.6 L 208.3,471.2 L 250.0,458.4 L 291.7,451.6 L 333.3,462.0 L 375.0,449.9 L 416.7,429.8 L 458.3,416.5 L 500.0,429.2 L 541.7,425.1 L 583.3,420.6 L 625.0,441.1 L 666.7,459.1 L 708.3,457.1 L 750.0,449.9 L 791.7,458.1 L 833.3,462.7 L 875.0,437.5 L 916.7,426.8 L 958.3,430.0 L 1000.0,428.8" fill="none" stroke="#071b24" stroke-opacity=".15" stroke-width="1.3"/><path d="M 0.0,432.0 L 41.7,445.5 L 83.3,446.7 L 125.0,459.1 L 166.7,473.8 L 208.3,487.8 L 250.0,464.5 L 291.7,460.2 L 333.3,461.4 L 375.0,444.3 L 416.7,434.3 L 458.3,430.7 L 500.0,444.4 L 541.7,441.3 L 583.3,453.1 L 625.0,469.2 L 666.7,468.1 L 708.3,475.8 L 750.0,476.6 L 791.7,468.8 L 833.3,447.4 L 875.0,435.4 L 916.7,437.5 L 958.3,435.4 L 1000.0,434.4 L1000,620 L0,620Z" fill="#dedfc2"/><path d="M 0.0,436.0 L 41.7,449.5 L 83.3,450.7 L 125.0,463.1 L 166.7,477.8 L 208.3,491.8 L 250.0,468.5 L 291.7,464.2 L 333.3,465.4 L 375.0,448.3 L 416.7,438.3 L 458.3,434.7 L 500.0,448.4 L 541.7,445.3 L 583.3,457.1 L 625.0,473.2 L 666.7,472.1 L 708.3,479.8 L 750.0,480.6 L 791.7,472.8 L 833.3,451.4 L 875.0,439.4 L 916.7,441.5 L 958.3,439.4 L 1000.0,438.4" fill="none" stroke="#071b24" stroke-opacity=".15" stroke-width="1.3"/><path d="M 0.0,441.0 L 41.7,454.5 L 83.3,455.7 L 125.0,468.1 L 166.7,482.8 L 208.3,496.8 L 250.0,473.5 L 291.7,469.2 L 333.3,470.4 L 375.0,453.3 L 416.7,443.3 L 458.3,439.7 L 500.0,453.4 L 541.7,450.3 L 583.3,462.1 L 625.0,478.2 L 666.7,477.1 L 708.3,484.8 L 750.0,485.6 L 791.7,477.8 L 833.3,456.4 L 875.0,444.4 L 916.7,446.5 L 958.3,444.4 L 1000.0,443.4" fill="none" stroke="#071b24" stroke-opacity=".15" stroke-width="1.3"/><path d="M 0.0,471.2 L 41.7,474.6 L 83.3,483.6 L 125.0,501.3 L 166.7,506.2 L 208.3,484.4 L 250.0,478.5 L 291.7,476.3 L 333.3,469.8 L 375.0,443.9 L 416.7,462.6 L 458.3,467.5 L 500.0,469.3 L 541.7,475.1 L 583.3,495.0 L 625.0,505.6 L 666.7,480.9 L 708.3,488.2 L 750.0,482.3 L 791.7,474.2 L 833.3,454.7 L 875.0,461.1 L 916.7,456.7 L 958.3,465.2 L 1000.0,467.8 L1000,620 L0,620Z" fill="#67908c"/><path d="M 0.0,475.2 L 41.7,478.6 L 83.3,487.6 L 125.0,505.3 L 166.7,510.2 L 208.3,488.4 L 250.0,482.5 L 291.7,480.3 L 333.3,473.8 L 375.0,447.9 L 416.7,466.6 L 458.3,471.5 L 500.0,473.3 L 541.7,479.1 L 583.3,499.0 L 625.0,509.6 L 666.7,484.9 L 708.3,492.2 L 750.0,486.3 L 791.7,478.2 L 833.3,458.7 L 875.0,465.1 L 916.7,460.7 L 958.3,469.2 L 1000.0,471.8" fill="none" stroke="#071b24" stroke-opacity=".15" stroke-width="1.3"/><path d="M 0.0,480.2 L 41.7,483.6 L 83.3,492.6 L 125.0,510.3 L 166.7,515.2 L 208.3,493.4 L 250.0,487.5 L 291.7,485.3 L 333.3,478.8 L 375.0,452.9 L 416.7,471.6 L 458.3,476.5 L 500.0,478.3 L 541.7,484.1 L 583.3,504.0 L 625.0,514.6 L 666.7,489.9 L 708.3,497.2 L 750.0,491.3 L 791.7,483.2 L 833.3,463.7 L 875.0,470.1 L 916.7,465.7 L 958.3,474.2 L 1000.0,476.8" fill="none" stroke="#071b24" stroke-opacity=".15" stroke-width="1.3"/><path d="M 0.0,502.4 L 41.7,504.1 L 83.3,509.6 L 125.0,530.3 L 166.7,503.4 L 208.3,491.1 L 250.0,487.7 L 291.7,492.4 L 333.3,460.3 L 375.0,463.6 L 416.7,491.9 L 458.3,498.9 L 500.0,497.9 L 541.7,505.5 L 583.3,533.9 L 625.0,517.3 L 666.7,495.7 L 708.3,496.2 L 750.0,485.2 L 791.7,466.9 L 833.3,471.2 L 875.0,479.4 L 916.7,492.6 L 958.3,493.9 L 1000.0,499.7 L1000,620 L0,620Z" fill="#12313b"/><path d="M 0.0,506.4 L 41.7,508.1 L 83.3,513.6 L 125.0,534.3 L 166.7,507.4 L 208.3,495.1 L 250.0,491.7 L 291.7,496.4 L 333.3,464.3 L 375.0,467.6 L 416.7,495.9 L 458.3,502.9 L 500.0,501.9 L 541.7,509.5 L 583.3,537.9 L 625.0,521.3 L 666.7,499.7 L 708.3,500.2 L 750.0,489.2 L 791.7,470.9 L 833.3,475.2 L 875.0,483.4 L 916.7,496.6 L 958.3,497.9 L 1000.0,503.7" fill="none" stroke="#071b24" stroke-opacity=".15" stroke-width="1.3"/><path d="M 0.0,511.4 L 41.7,513.1 L 83.3,518.6 L 125.0,539.3 L 166.7,512.4 L 208.3,500.1 L 250.0,496.7 L 291.7,501.4 L 333.3,469.3 L 375.0,472.6 L 416.7,500.9 L 458.3,507.9 L 500.0,506.9 L 541.7,514.5 L 583.3,542.9 L 625.0,526.3 L 666.7,504.7 L 708.3,505.2 L 750.0,494.2 L 791.7,475.9 L 833.3,480.2 L 875.0,488.4 L 916.7,501.6 L 958.3,502.9 L 1000.0,508.7" fill="none" stroke="#071b24" stroke-opacity=".15" stroke-width="1.3"/><path d="M 0.0,539.5 L 41.7,531.0 L 83.3,533.0 L 125.0,536.0 L 166.7,509.9 L 208.3,501.6 L 250.0,513.3 L 291.7,499.1 L 333.3,493.9 L 375.0,508.0 L 416.7,526.6 L 458.3,526.7 L 500.0,538.6 L 541.7,539.5 L 583.3,535.3 L 625.0,514.4 L 666.7,511.0 L 708.3,507.2 L 750.0,494.3 L 791.7,497.0 L 833.3,498.6 L 875.0,521.4 L 916.7,518.9 L 958.3,523.8 L 1000.0,536.3 L1000,620 L0,620Z" fill="#254955"/><path d="M 0.0,543.5 L 41.7,535.0 L 83.3,537.0 L 125.0,540.0 L 166.7,513.9 L 208.3,505.6 L 250.0,517.3 L 291.7,503.1 L 333.3,497.9 L 375.0,512.0 L 416.7,530.6 L 458.3,530.7 L 500.0,542.6 L 541.7,543.5 L 583.3,539.3 L 625.0,518.4 L 666.7,515.0 L 708.3,511.2 L 750.0,498.3 L 791.7,501.0 L 833.3,502.6 L 875.0,525.4 L 916.7,522.9 L 958.3,527.8 L 1000.0,540.3" fill="none" stroke="#071b24" stroke-opacity=".15" stroke-width="1.3"/><path d="M 0.0,548.5 L 41.7,540.0 L 83.3,542.0 L 125.0,545.0 L 166.7,518.9 L 208.3,510.6 L 250.0,522.3 L 291.7,508.1 L 333.3,502.9 L 375.0,517.0 L 416.7,535.6 L 458.3,535.7 L 500.0,547.6 L 541.7,548.5 L 583.3,544.3 L 625.0,523.4 L 666.7,520.0 L 708.3,516.2 L 750.0,503.3 L 791.7,506.0 L 833.3,507.6 L 875.0,530.4 L 916.7,527.9 L 958.3,532.8 L 1000.0,545.3" fill="none" stroke="#071b24" stroke-opacity=".15" stroke-width="1.3"/><path d="M 0.0,540.4 L 41.7,551.7 L 83.3,551.3 L 125.0,528.5 L 166.7,516.9 L 208.3,530.5 L 250.0,513.0 L 291.7,511.3 L 333.3,528.7 L 375.0,553.5 L 416.7,558.2 L 458.3,542.7 L 500.0,560.1 L 541.7,551.7 L 583.3,538.4 L 625.0,520.7 L 666.7,529.8 L 708.3,522.4 L 750.0,517.8 L 791.7,521.7 L 833.3,542.9 L 875.0,546.1 L 916.7,548.0 L 958.3,558.1 L 1000.0,563.3 L1000,620 L0,620Z" fill="#67908c"/><path d="M 0.0,544.4 L 41.7,555.7 L 83.3,555.3 L 125.0,532.5 L 166.7,520.9 L 208.3,534.5 L 250.0,517.0 L 291.7,515.3 L 333.3,532.7 L 375.0,557.5 L 416.7,562.2 L 458.3,546.7 L 500.0,564.1 L 541.7,555.7 L 583.3,542.4 L 625.0,524.7 L 666.7,533.8 L 708.3,526.4 L 750.0,521.8 L 791.7,525.7 L 833.3,546.9 L 875.0,550.1 L 916.7,552.0 L 958.3,562.1 L 1000.0,567.3" fill="none" stroke="#071b24" stroke-opacity=".15" stroke-width="1.3"/><path d="M 0.0,549.4 L 41.7,560.7 L 83.3,560.3 L 125.0,537.5 L 166.7,525.9 L 208.3,539.5 L 250.0,522.0 L 291.7,520.3 L 333.3,537.7 L 375.0,562.5 L 416.7,567.2 L 458.3,551.7 L 500.0,569.1 L 541.7,560.7 L 583.3,547.4 L 625.0,529.7 L 666.7,538.8 L 708.3,531.4 L 750.0,526.8 L 791.7,530.7 L 833.3,551.9 L 875.0,555.1 L 916.7,557.0 L 958.3,567.1 L 1000.0,572.3" fill="none" stroke="#071b24" stroke-opacity=".15" stroke-width="1.3"/><path d="M 0.0,563.7 L 41.7,568.1 L 83.3,552.9 L 125.0,526.9 L 166.7,546.7 L 208.3,541.9 L 250.0,545.0 L 291.7,551.0 L 333.3,575.2 L 375.0,579.8 L 416.7,572.9 L 458.3,570.7 L 500.0,576.1 L 541.7,560.2 L 583.3,538.3 L 625.0,539.3 L 666.7,542.0 L 708.3,537.0 L 750.0,544.8 L 791.7,563.1 L 833.3,572.4 L 875.0,577.6 L 916.7,574.4 L 958.3,572.9 L 1000.0,570.0 L1000,620 L0,620Z" fill="#dedfc2"/><path d="M 0.0,567.7 L 41.7,572.1 L 83.3,556.9 L 125.0,530.9 L 166.7,550.7 L 208.3,545.9 L 250.0,549.0 L 291.7,555.0 L 333.3,579.2 L 375.0,583.8 L 416.7,576.9 L 458.3,574.7 L 500.0,580.1 L 541.7,564.2 L 583.3,542.3 L 625.0,543.3 L 666.7,546.0 L 708.3,541.0 L 750.0,548.8 L 791.7,567.1 L 833.3,576.4 L 875.0,581.6 L 916.7,578.4 L 958.3,576.9 L 1000.0,574.0" fill="none" stroke="#071b24" stroke-opacity=".15" stroke-width="1.3"/><path d="M 0.0,572.7 L 41.7,577.1 L 83.3,561.9 L 125.0,535.9 L 166.7,555.7 L 208.3,550.9 L 250.0,554.0 L 291.7,560.0 L 333.3,584.2 L 375.0,588.8 L 416.7,581.9 L 458.3,579.7 L 500.0,585.1 L 541.7,569.2 L 583.3,547.3 L 625.0,548.3 L 666.7,551.0 L 708.3,546.0 L 750.0,553.8 L 791.7,572.1 L 833.3,581.4 L 875.0,586.6 L 916.7,583.4 L 958.3,581.9 L 1000.0,579.0" fill="none" stroke="#071b24" stroke-opacity=".15" stroke-width="1.3"/><path d="M 0.0,580.2 L 41.7,570.9 L 83.3,545.1 L 125.0,545.1 L 166.7,566.8 L 208.3,577.3 L 250.0,574.4 L 291.7,592.2 L 333.3,600.4 L 375.0,589.1 L 416.7,586.3 L 458.3,586.7 L 500.0,579.1 L 541.7,561.4 L 583.3,545.0 L 625.0,554.4 L 666.7,563.2 L 708.3,570.3 L 750.0,580.3 L 791.7,594.9 L 833.3,597.6 L 875.0,581.7 L 916.7,592.3 L 958.3,586.6 L 1000.0,569.1 L1000,620 L0,620Z" fill="#67908c"/><path d="M 0.0,584.2 L 41.7,574.9 L 83.3,549.1 L 125.0,549.1 L 166.7,570.8 L 208.3,581.3 L 250.0,578.4 L 291.7,596.2 L 333.3,604.4 L 375.0,593.1 L 416.7,590.3 L 458.3,590.7 L 500.0,583.1 L 541.7,565.4 L 583.3,549.0 L 625.0,558.4 L 666.7,567.2 L 708.3,574.3 L 750.0,584.3 L 791.7,598.9 L 833.3,601.6 L 875.0,585.7 L 916.7,596.3 L 958.3,590.6 L 1000.0,573.1" fill="none" stroke="#071b24" stroke-opacity=".15" stroke-width="1.3"/><path d="M 0.0,589.2 L 41.7,579.9 L 83.3,554.1 L 125.0,554.1 L 166.7,575.8 L 208.3,586.3 L 250.0,583.4 L 291.7,601.2 L 333.3,609.4 L 375.0,598.1 L 416.7,595.3 L 458.3,595.7 L 500.0,588.1 L 541.7,570.4 L 583.3,554.0 L 625.0,563.4 L 666.7,572.2 L 708.3,579.3 L 750.0,589.3 L 791.7,603.9 L 833.3,606.6 L 875.0,590.7 L 916.7,601.3 L 958.3,595.6 L 1000.0,578.1" fill="none" stroke="#071b24" stroke-opacity=".15" stroke-width="1.3"/><rect width="1000" height="620" fill="url(#grain)" opacity=".11"/></svg>