<svg xmlns="http://www.w3.org/2000/svg" width="1600" height="992" viewBox="0 0 1000 620"><title>TOI-1807 b — landscape illustration</title><defs><pattern id="grain" width="9" height="11" patternUnits="userSpaceOnUse"><path d="M1 2h1M5 7h1M8 4h1" stroke="#efe1c8" stroke-width=".8"/></pattern></defs><rect width="1000" height="620" fill="#130f13"/><circle cx="340" cy="132" r="1.8" fill="#f8ce83" opacity="0.45"/><circle cx="205" cy="203" r="0.8" fill="#f8ce83" opacity="0.29"/><circle cx="831" cy="101" r="1.8" fill="#f8ce83" opacity="0.42"/><circle cx="30" cy="28" r="1.8" fill="#f8ce83" opacity="0.58"/><circle cx="239" cy="297" r="0.8" fill="#f8ce83" opacity="0.65"/><circle cx="135" cy="39" r="1.8" fill="#f8ce83" opacity="0.35"/><circle cx="136" cy="178" r="1.8" fill="#f8ce83" opacity="0.61"/><circle cx="891" cy="27" r="1.3" fill="#f8ce83" opacity="0.44"/><circle cx="333" cy="274" r="0.8" fill="#f8ce83" opacity="0.56"/><circle cx="128" cy="203" r="1.8" fill="#f8ce83" opacity="0.27"/><circle cx="268" cy="276" r="1.8" fill="#f8ce83" opacity="0.29"/><circle cx="662" cy="278" r="1.8" fill="#f8ce83" opacity="0.17"/><circle cx="390" cy="50" r="1.8" fill="#f8ce83" opacity="0.56"/><circle cx="592" cy="210" r="1.3" fill="#f8ce83" opacity="0.20"/><circle cx="330" cy="187" r="1.8" fill="#f8ce83" opacity="0.51"/><circle cx="117" cy="124" r="0.8" fill="#f8ce83" opacity="0.43"/><circle cx="59" cy="92" r="1" fill="#f8ce83" opacity="0.21"/><circle cx="173" cy="233" r="1.3" fill="#f8ce83" opacity="0.62"/><circle cx="616" cy="296" r="1" fill="#f8ce83" opacity="0.40"/><circle cx="52" cy="258" r="1.8" fill="#f8ce83" opacity="0.26"/><circle cx="657" cy="34" r="0.8" fill="#f8ce83" opacity="0.22"/><circle cx="113" cy="247" r="1.3" fill="#f8ce83" opacity="0.39"/><circle cx="861" cy="120" r="0.8" fill="#f8ce83" opacity="0.58"/><circle cx="24" cy="219" r="1" fill="#f8ce83" opacity="0.42"/><circle cx="273" cy="286" r="0.8" fill="#f8ce83" opacity="0.46"/><circle cx="420" cy="210" r="0.8" fill="#f8ce83" opacity="0.16"/><circle cx="310" cy="247" r="1" fill="#f8ce83" opacity="0.36"/><circle cx="656" cy="94" r="1.8" fill="#f8ce83" opacity="0.24"/><circle cx="517" cy="86" r="1.8" fill="#f8ce83" opacity="0.48"/><circle cx="236" cy="241" r="1.8" fill="#f8ce83" opacity="0.53"/><circle cx="312" cy="191" r="1.8" fill="#f8ce83" opacity="0.41"/><circle cx="858" cy="307" r="1" fill="#f8ce83" opacity="0.63"/><circle cx="715" cy="110" r="1.8" fill="#f8ce83" opacity="0.35"/><circle cx="161" cy="268" r="1" fill="#f8ce83" opacity="0.21"/><circle cx="610" cy="92" r="0.8" fill="#f8ce83" opacity="0.35"/><circle cx="884" cy="83" r="1" fill="#f8ce83" opacity="0.51"/><circle cx="86" cy="122" r="1.3" fill="#f8ce83" opacity="0.54"/><circle cx="104" cy="67" r="0.8" fill="#f8ce83" opacity="0.63"/><circle cx="872" cy="143" r="1" fill="#f8ce83" opacity="0.65"/><circle cx="177" cy="306" r="1" fill="#f8ce83" opacity="0.46"/><circle cx="134" cy="234" r="1.8" fill="#f8ce83" opacity="0.15"/><circle cx="646" cy="186" r="1.8" fill="#f8ce83" opacity="0.50"/><circle cx="802" cy="58" r="1.8" fill="#f8ce83" opacity="0.41"/><circle cx="624" cy="166" r="1.8" fill="#f8ce83" opacity="0.55"/><circle cx="249" cy="144" r="1.8" fill="#f8ce83" opacity="0.50"/><circle cx="628" cy="179.79999999999998" r="134.4" fill="#ef8140" opacity=".09"/><circle cx="628" cy="179.79999999999998" r="105" fill="#f8ce83"/><path d="M -20,258 L 15,260 L 50,257 L 85,293 L 120,263 L 155,271 L 190,268 L 225,280 L 260,278 L 295,293 L 330,269 L 365,260 L 400,246 L 435,253 L 470,257 L 505,285 L 540,270 L 575,247 L 610,293 L 645,284 L 680,274 L 715,283 L 750,271 L 785,287 L 820,285 L 855,272 L 890,256 L 925,248 L 960,270 L 995,250 L 1030,259 L1000,620 L0,620Z" fill="#77392a"/><path d="M0 310.0 Q 478 275.0 1000 330.0" stroke="#f8ce83" stroke-opacity=".12" fill="none"/><path d="M0 325.0 Q 308 290.0 1000 345.0" stroke="#f8ce83" stroke-opacity=".12" fill="none"/><path d="M0 340.0 Q 353 305.0 1000 360.0" stroke="#f8ce83" stroke-opacity=".12" fill="none"/><path d="M0 355.0 Q 491 320.0 1000 375.0" stroke="#f8ce83" stroke-opacity=".12" fill="none"/><path d="M0 370.0 Q 505 335.0 1000 390.0" stroke="#f8ce83" stroke-opacity=".12" fill="none"/><path d="M0 385.0 Q 471 350.0 1000 405.0" stroke="#f8ce83" stroke-opacity=".12" fill="none"/><path d="M0 400.0 Q 317 365.0 1000 420.0" stroke="#f8ce83" stroke-opacity=".12" fill="none"/><path d="M -20,318 L 15,302 L 50,302 L 85,294 L 120,326 L 155,274 L 190,304 L 225,281 L 260,278 L 295,315 L 330,271 L 365,307 L 400,305 L 435,275 L 470,281 L 505,318 L 540,284 L 575,284 L 610,276 L 645,313 L 680,287 L 715,279 L 750,318 L 785,272 L 820,322 L 855,288 L 890,322 L 925,291 L 960,302 L 995,280 L 1030,302 L1000,620 L0,620Z" fill="#ef8140"/><path d="M0 354.3 Q 236 319.3 1000 374.3" stroke="#f8ce83" stroke-opacity=".12" fill="none"/><path d="M0 369.3 Q 598 334.3 1000 389.3" stroke="#f8ce83" stroke-opacity=".12" fill="none"/><path d="M0 384.3 Q 371 349.3 1000 404.3" stroke="#f8ce83" stroke-opacity=".12" fill="none"/><path d="M0 399.3 Q 656 364.3 1000 419.3" stroke="#f8ce83" stroke-opacity=".12" fill="none"/><path d="M0 414.3 Q 551 379.3 1000 434.3" stroke="#f8ce83" stroke-opacity=".12" fill="none"/><path d="M0 429.3 Q 237 394.3 1000 449.3" stroke="#f8ce83" stroke-opacity=".12" fill="none"/><path d="M0 444.3 Q 259 409.3 1000 464.3" stroke="#f8ce83" stroke-opacity=".12" fill="none"/><path d="M -20,367 L 15,351 L 50,373 L 85,346 L 120,339 L 155,349 L 190,327 L 225,299 L 260,325 L 295,325 L 330,370 L 365,317 L 400,373 L 435,304 L 470,365 L 505,373 L 540,322 L 575,352 L 610,368 L 645,306 L 680,325 L 715,347 L 750,312 L 785,330 L 820,359 L 855,346 L 890,344 L 925,371 L 960,320 L 995,307 L 1030,299 L1000,620 L0,620Z" fill="#77392a"/><path d="M0 398.6 Q 600 363.6 1000 418.6" stroke="#f8ce83" stroke-opacity=".12" fill="none"/><path d="M0 413.6 Q 371 378.6 1000 433.6" stroke="#f8ce83" stroke-opacity=".12" fill="none"/><path d="M0 428.6 Q 599 393.6 1000 448.6" stroke="#f8ce83" stroke-opacity=".12" fill="none"/><path d="M0 443.6 Q 577 408.6 1000 463.6" stroke="#f8ce83" stroke-opacity=".12" fill="none"/><path d="M0 458.6 Q 206 423.6 1000 478.6" stroke="#f8ce83" stroke-opacity=".12" fill="none"/><path d="M0 473.6 Q 542 438.6 1000 493.6" stroke="#f8ce83" stroke-opacity=".12" fill="none"/><path d="M0 488.6 Q 437 453.6 1000 508.6" stroke="#f8ce83" stroke-opacity=".12" fill="none"/><path d="M -20,321 L 15,395 L 50,333 L 85,335 L 120,344 L 155,371 L 190,333 L 225,323 L 260,376 L 295,376 L 330,403 L 365,397 L 400,333 L 435,367 L 470,412 L 505,350 L 540,323 L 575,357 L 610,348 L 645,412 L 680,327 L 715,390 L 750,342 L 785,411 L 820,323 L 855,365 L 890,371 L 925,409 L 960,354 L 995,335 L 1030,357 L1000,620 L0,620Z" fill="#271c20"/><path d="M0 442.9 Q 383 407.9 1000 462.9" stroke="#f8ce83" stroke-opacity=".12" fill="none"/><path d="M0 457.9 Q 354 422.9 1000 477.9" stroke="#f8ce83" stroke-opacity=".12" fill="none"/><path d="M0 472.9 Q 661 437.9 1000 492.9" stroke="#f8ce83" stroke-opacity=".12" fill="none"/><path d="M0 487.9 Q 575 452.9 1000 507.9" stroke="#f8ce83" stroke-opacity=".12" fill="none"/><path d="M0 502.9 Q 339 467.9 1000 522.9" stroke="#f8ce83" stroke-opacity=".12" fill="none"/><path d="M0 517.9 Q 642 482.9 1000 537.9" stroke="#f8ce83" stroke-opacity=".12" fill="none"/><path d="M0 532.9 Q 262 497.9 1000 552.9" stroke="#f8ce83" stroke-opacity=".12" fill="none"/><path d="M -20,450 L 15,450 L 50,448 L 85,430 L 120,368 L 155,419 L 190,386 L 225,346 L 260,417 L 295,441 L 330,423 L 365,452 L 400,432 L 435,410 L 470,401 L 505,355 L 540,368 L 575,401 L 610,362 L 645,386 L 680,351 L 715,428 L 750,390 L 785,454 L 820,390 L 855,371 L 890,445 L 925,397 L 960,454 L 995,441 L 1030,362 L1000,620 L0,620Z" fill="#130f13"/><path d="M0 487.1 Q 271 452.1 1000 507.1" stroke="#f8ce83" stroke-opacity=".12" fill="none"/><path d="M0 502.1 Q 411 467.1 1000 522.1" stroke="#f8ce83" stroke-opacity=".12" fill="none"/><path d="M0 517.1 Q 373 482.1 1000 537.1" stroke="#f8ce83" stroke-opacity=".12" fill="none"/><path d="M0 532.1 Q 350 497.1 1000 552.1" stroke="#f8ce83" stroke-opacity=".12" fill="none"/><path d="M0 547.1 Q 604 512.1 1000 567.1" stroke="#f8ce83" stroke-opacity=".12" fill="none"/><path d="M0 562.1 Q 649 527.1 1000 582.1" stroke="#f8ce83" stroke-opacity=".12" fill="none"/><path d="M0 577.1 Q 239 542.1 1000 597.1" stroke="#f8ce83" stroke-opacity=".12" fill="none"/><path d="M 436,335 L 611,354 L 478,399 L 359,443 L 397,487 L 532,531 L 577,576 L 456,620 L 616,620 L 697,576 L 618,531 L 455,487 L 395,443 L 498,399 L 622,354 L 444,335Z" fill="#ef8140"/><path d="M 440,335 L 616,354 L 487,399 L 375,443 L 422,487 L 569,531 L 628,576 L 524,620" fill="none" stroke="#f8ce83" stroke-width="4"/><path d="M465.1 589.5 l10.2 -11.0 l20.3 4.2 l3.4 6.8Z" fill="#77392a"/><path d="M573.0 568.6 l6.6 -7.2 l13.2 2.8 l2.2 4.4Z" fill="#77392a"/><path d="M404.5 617.7 l13.5 -14.6 l27.0 5.6 l4.5 9.0Z" fill="#77392a"/><path d="M829.9 512.4 l6.1 -6.6 l12.2 2.5 l2.0 4.1Z" fill="#77392a"/><path d="M968.7 608.0 l8.6 -9.3 l17.1 3.6 l2.9 5.7Z" fill="#77392a"/><path d="M322.9 521.9 l9.7 -10.5 l19.4 4.0 l3.2 6.5Z" fill="#77392a"/><path d="M29.9 564.5 l7.9 -8.5 l15.7 3.3 l2.6 5.2Z" fill="#77392a"/><path d="M681.5 506.7 l11.1 -12.0 l22.2 4.6 l3.7 7.4Z" fill="#77392a"/><path d="M809.6 514.6 l3.2 -3.5 l6.4 1.3 l1.1 2.1Z" fill="#77392a"/><path d="M766.0 542.9 l2.4 -2.6 l4.8 1.0 l0.8 1.6Z" fill="#77392a"/><path d="M824.9 492.9 l10.3 -11.1 l20.5 4.3 l3.4 6.8Z" fill="#77392a"/><path d="M161.9 533.6 l8.5 -9.2 l16.9 3.5 l2.8 5.6Z" fill="#77392a"/><path d="M0.7 525.1 l5.6 -6.1 l11.2 2.3 l1.9 3.7Z" fill="#77392a"/><path d="M116.1 534.8 l10.7 -11.6 l21.4 4.5 l3.6 7.1Z" fill="#77392a"/><path d="M21.3 556.5 l8.8 -9.5 l17.6 3.7 l2.9 5.9Z" fill="#77392a"/><path d="M300.1 502.8 l10.2 -11.0 l20.3 4.2 l3.4 6.8Z" fill="#77392a"/><path d="M524.3 498.7 l7.0 -7.6 l14.1 2.9 l2.3 4.7Z" fill="#77392a"/><path d="M271.5 570.2 l12.9 -14.0 l25.8 5.4 l4.3 8.6Z" fill="#77392a"/><path d="M326.1 562.7 l10.1 -11.0 l20.3 4.2 l3.4 6.8Z" fill="#77392a"/><path d="M487.6 547.5 l3.2 -3.5 l6.5 1.3 l1.1 2.2Z" fill="#77392a"/><path d="M394.2 586.8 l5.9 -6.4 l11.7 2.4 l2.0 3.9Z" fill="#77392a"/><path d="M535.4 550.3 l5.7 -6.2 l11.5 2.4 l1.9 3.8Z" fill="#77392a"/><path d="M994.0 518.4 l2.4 -2.6 l4.8 1.0 l0.8 1.6Z" fill="#77392a"/><path d="M984.0 505.2 l6.6 -7.2 l13.2 2.8 l2.2 4.4Z" fill="#77392a"/><path d="M594.7 576.9 l12.8 -13.8 l25.5 5.3 l4.3 8.5Z" fill="#77392a"/><path d="M214.8 560.8 l11.5 -12.5 l23.1 4.8 l3.8 7.7Z" fill="#77392a"/><path d="M554.1 524.6 l1.7 -1.9 l3.4 0.7 l0.6 1.1Z" fill="#77392a"/><path d="M157.7 550.1 l5.6 -6.0 l11.1 2.3 l1.9 3.7Z" fill="#77392a"/><path d="M432.9 519.2 l4.3 -4.6 l8.6 1.8 l1.4 2.9Z" fill="#77392a"/><path d="M635.2 531.9 l8.9 -9.6 l17.7 3.7 l3.0 5.9Z" fill="#77392a"/><path d="M110.8 514.6 l10.3 -11.2 l20.7 4.3 l3.4 6.9Z" fill="#77392a"/><path d="M277.1 547.2 l10.2 -11.0 l20.3 4.2 l3.4 6.8Z" fill="#77392a"/><rect width="1000" height="620" fill="url(#grain)" opacity=".11"/></svg>