<svg xmlns="http://www.w3.org/2000/svg" width="3000" height="4500" viewBox="0 0 1000 1500"><title>V1298 Tau b travel poster</title><defs><pattern id="grain" width="9" height="11" patternUnits="userSpaceOnUse"><path d="M1 2h1M5 7h1M8 4h1" stroke="#efe1c8" stroke-width=".8"/></pattern></defs><rect width="1000" height="1500" fill="#e9dbbe"/><svg x="30" y="30" width="940" height="1269" viewBox="0 0 1000 1350"><rect width="1000" height="1350" fill="#071b24"/><circle cx="134" cy="671" r="1" fill="#dedfc2" opacity="0.29"/><circle cx="658" cy="66" r="1.3" fill="#dedfc2" opacity="0.53"/><circle cx="390" cy="516" r="0.8" fill="#dedfc2" opacity="0.31"/><circle cx="557" cy="242" r="1.3" fill="#dedfc2" opacity="0.53"/><circle cx="219" cy="542" r="1.3" fill="#dedfc2" opacity="0.16"/><circle cx="587" cy="488" r="1" fill="#dedfc2" opacity="0.35"/><circle cx="189" cy="282" r="1.3" fill="#dedfc2" opacity="0.58"/><circle cx="849" cy="483" r="1" fill="#dedfc2" opacity="0.59"/><circle cx="130" cy="46" r="1.8" fill="#dedfc2" opacity="0.40"/><circle cx="201" cy="182" r="1.8" fill="#dedfc2" opacity="0.60"/><circle cx="965" cy="413" r="0.8" fill="#dedfc2" opacity="0.63"/><circle cx="583" cy="85" r="1.8" fill="#dedfc2" opacity="0.18"/><circle cx="513" cy="253" r="0.8" fill="#dedfc2" opacity="0.45"/><circle cx="773" cy="389" r="0.8" fill="#dedfc2" opacity="0.36"/><circle cx="529" cy="556" r="1" fill="#dedfc2" opacity="0.18"/><circle cx="293" cy="579" r="1.3" fill="#dedfc2" opacity="0.42"/><circle cx="815" cy="59" r="0.8" fill="#dedfc2" opacity="0.28"/><circle cx="24" cy="282" r="1.8" fill="#dedfc2" opacity="0.48"/><circle cx="497" cy="611" r="1.3" fill="#dedfc2" opacity="0.30"/><circle cx="458" cy="666" r="1.3" fill="#dedfc2" opacity="0.58"/><circle cx="596" cy="645" r="1" fill="#dedfc2" opacity="0.63"/><circle cx="553" cy="446" r="1.8" fill="#dedfc2" opacity="0.30"/><circle cx="61" cy="647" r="1" fill="#dedfc2" opacity="0.19"/><circle cx="767" cy="420" r="1" fill="#dedfc2" opacity="0.44"/><circle cx="351" cy="354" r="0.8" fill="#dedfc2" opacity="0.20"/><circle cx="567" cy="218" r="1" fill="#dedfc2" opacity="0.53"/><circle cx="69" cy="45" r="1.3" fill="#dedfc2" opacity="0.43"/><circle cx="124" cy="284" r="0.8" fill="#dedfc2" opacity="0.21"/><circle cx="743" cy="321" r="1" fill="#dedfc2" opacity="0.38"/><circle cx="370" cy="664" r="1" fill="#dedfc2" opacity="0.31"/><circle cx="399" cy="253" r="1.8" fill="#dedfc2" opacity="0.61"/><circle cx="954" cy="458" r="1.8" fill="#dedfc2" opacity="0.25"/><circle cx="127" cy="233" r="1.3" fill="#dedfc2" opacity="0.22"/><circle cx="170" cy="49" r="0.8" fill="#dedfc2" opacity="0.38"/><circle cx="260" cy="32" r="1" fill="#dedfc2" opacity="0.25"/><circle cx="198" cy="50" r="1.3" fill="#dedfc2" opacity="0.19"/><circle cx="172" cy="304" r="1.8" fill="#dedfc2" opacity="0.47"/><circle cx="796" cy="114" r="1.3" fill="#dedfc2" opacity="0.40"/><circle cx="471" cy="62" r="0.8" fill="#dedfc2" opacity="0.57"/><circle cx="757" cy="429" r="0.8" fill="#dedfc2" opacity="0.28"/><circle cx="731" cy="584" r="1.3" fill="#dedfc2" opacity="0.61"/><circle cx="908" cy="405" r="1.3" fill="#dedfc2" opacity="0.46"/><circle cx="719" cy="150" r="0.8" fill="#dedfc2" opacity="0.25"/><circle cx="520" cy="514" r="0.8" fill="#dedfc2" opacity="0.41"/><circle cx="953" cy="25" r="1.8" fill="#dedfc2" opacity="0.35"/><circle cx="496" cy="391.5" r="49.89189500253142" fill="#67908c" opacity=".09"/><circle cx="496" cy="391.5" r="38.97804297072767" fill="#dedfc2"/><path d="M 0.0,675.0 L 41.7,691.0 L 83.3,697.4 L 125.0,689.8 L 166.7,695.3 L 208.3,693.9 L 250.0,667.9 L 291.7,661.7 L 333.3,668.1 L 375.0,648.4 L 416.7,643.8 L 458.3,665.8 L 500.0,684.1 L 541.7,694.8 L 583.3,687.6 L 625.0,694.4 L 666.7,697.9 L 708.3,675.3 L 750.0,664.1 L 791.7,660.4 L 833.3,660.8 L 875.0,642.2 L 916.7,663.6 L 958.3,677.3 L 1000.0,681.3 L1000,1350 L0,1350Z" fill="#254955"/><path d="M 0.0,679.0 L 41.7,695.0 L 83.3,701.4 L 125.0,693.8 L 166.7,699.3 L 208.3,697.9 L 250.0,671.9 L 291.7,665.7 L 333.3,672.1 L 375.0,652.4 L 416.7,647.8 L 458.3,669.8 L 500.0,688.1 L 541.7,698.8 L 583.3,691.6 L 625.0,698.4 L 666.7,701.9 L 708.3,679.3 L 750.0,668.1 L 791.7,664.4 L 833.3,664.8 L 875.0,646.2 L 916.7,667.6 L 958.3,681.3 L 1000.0,685.3" fill="none" stroke="#071b24" stroke-opacity=".15" stroke-width="1.3"/><path d="M 0.0,684.0 L 41.7,700.0 L 83.3,706.4 L 125.0,698.8 L 166.7,704.3 L 208.3,702.9 L 250.0,676.9 L 291.7,670.7 L 333.3,677.1 L 375.0,657.4 L 416.7,652.8 L 458.3,674.8 L 500.0,693.1 L 541.7,703.8 L 583.3,696.6 L 625.0,703.4 L 666.7,706.9 L 708.3,684.3 L 750.0,673.1 L 791.7,669.4 L 833.3,669.8 L 875.0,651.2 L 916.7,672.6 L 958.3,686.3 L 1000.0,690.3" fill="none" stroke="#071b24" stroke-opacity=".15" stroke-width="1.3"/><path d="M 0.0,738.2 L 41.7,750.9 L 83.3,740.6 L 125.0,731.4 L 166.7,731.8 L 208.3,712.9 L 250.0,692.1 L 291.7,703.3 L 333.3,709.0 L 375.0,700.7 L 416.7,711.4 L 458.3,731.8 L 500.0,738.2 L 541.7,736.3 L 583.3,738.8 L 625.0,744.2 L 666.7,721.8 L 708.3,699.0 L 750.0,702.6 L 791.7,707.5 L 833.3,703.7 L 875.0,699.4 L 916.7,725.6 L 958.3,734.5 L 1000.0,725.7 L1000,1350 L0,1350Z" fill="#67908c"/><path d="M 0.0,742.2 L 41.7,754.9 L 83.3,744.6 L 125.0,735.4 L 166.7,735.8 L 208.3,716.9 L 250.0,696.1 L 291.7,707.3 L 333.3,713.0 L 375.0,704.7 L 416.7,715.4 L 458.3,735.8 L 500.0,742.2 L 541.7,740.3 L 583.3,742.8 L 625.0,748.2 L 666.7,725.8 L 708.3,703.0 L 750.0,706.6 L 791.7,711.5 L 833.3,707.7 L 875.0,703.4 L 916.7,729.6 L 958.3,738.5 L 1000.0,729.7" fill="none" stroke="#071b24" stroke-opacity=".15" stroke-width="1.3"/><path d="M 0.0,747.2 L 41.7,759.9 L 83.3,749.6 L 125.0,740.4 L 166.7,740.8 L 208.3,721.9 L 250.0,701.1 L 291.7,712.3 L 333.3,718.0 L 375.0,709.7 L 416.7,720.4 L 458.3,740.8 L 500.0,747.2 L 541.7,745.3 L 583.3,747.8 L 625.0,753.2 L 666.7,730.8 L 708.3,708.0 L 750.0,711.6 L 791.7,716.5 L 833.3,712.7 L 875.0,708.4 L 916.7,734.6 L 958.3,743.5 L 1000.0,734.7" fill="none" stroke="#071b24" stroke-opacity=".15" stroke-width="1.3"/><path d="M 0.0,802.5 L 41.7,782.2 L 83.3,770.5 L 125.0,771.7 L 166.7,760.9 L 208.3,736.7 L 250.0,738.1 L 291.7,755.6 L 333.3,758.6 L 375.0,759.1 L 416.7,775.1 L 458.3,781.6 L 500.0,774.4 L 541.7,783.4 L 583.3,780.1 L 625.0,768.0 L 666.7,741.4 L 708.3,745.7 L 750.0,741.4 L 791.7,754.4 L 833.3,749.4 L 875.0,771.7 L 916.7,780.3 L 958.3,791.8 L 1000.0,782.0 L1000,1350 L0,1350Z" fill="#dedfc2"/><path d="M 0.0,806.5 L 41.7,786.2 L 83.3,774.5 L 125.0,775.7 L 166.7,764.9 L 208.3,740.7 L 250.0,742.1 L 291.7,759.6 L 333.3,762.6 L 375.0,763.1 L 416.7,779.1 L 458.3,785.6 L 500.0,778.4 L 541.7,787.4 L 583.3,784.1 L 625.0,772.0 L 666.7,745.4 L 708.3,749.7 L 750.0,745.4 L 791.7,758.4 L 833.3,753.4 L 875.0,775.7 L 916.7,784.3 L 958.3,795.8 L 1000.0,786.0" fill="none" stroke="#071b24" stroke-opacity=".15" stroke-width="1.3"/><path d="M 0.0,811.5 L 41.7,791.2 L 83.3,779.5 L 125.0,780.7 L 166.7,769.9 L 208.3,745.7 L 250.0,747.1 L 291.7,764.6 L 333.3,767.6 L 375.0,768.1 L 416.7,784.1 L 458.3,790.6 L 500.0,783.4 L 541.7,792.4 L 583.3,789.1 L 625.0,777.0 L 666.7,750.4 L 708.3,754.7 L 750.0,750.4 L 791.7,763.4 L 833.3,758.4 L 875.0,780.7 L 916.7,789.3 L 958.3,800.8 L 1000.0,791.0" fill="none" stroke="#071b24" stroke-opacity=".15" stroke-width="1.3"/><path d="M 0.0,828.8 L 41.7,809.2 L 83.3,809.4 L 125.0,800.5 L 166.7,795.1 L 208.3,791.5 L 250.0,803.6 L 291.7,805.4 L 333.3,808.8 L 375.0,818.9 L 416.7,830.5 L 458.3,836.9 L 500.0,810.3 L 541.7,815.4 L 583.3,813.6 L 625.0,800.1 L 666.7,780.1 L 708.3,792.7 L 750.0,801.1 L 791.7,803.9 L 833.3,815.9 L 875.0,825.0 L 916.7,844.3 L 958.3,815.4 L 1000.0,818.2 L1000,1350 L0,1350Z" fill="#67908c"/><path d="M 0.0,832.8 L 41.7,813.2 L 83.3,813.4 L 125.0,804.5 L 166.7,799.1 L 208.3,795.5 L 250.0,807.6 L 291.7,809.4 L 333.3,812.8 L 375.0,822.9 L 416.7,834.5 L 458.3,840.9 L 500.0,814.3 L 541.7,819.4 L 583.3,817.6 L 625.0,804.1 L 666.7,784.1 L 708.3,796.7 L 750.0,805.1 L 791.7,807.9 L 833.3,819.9 L 875.0,829.0 L 916.7,848.3 L 958.3,819.4 L 1000.0,822.2" fill="none" stroke="#071b24" stroke-opacity=".15" stroke-width="1.3"/><path d="M 0.0,837.8 L 41.7,818.2 L 83.3,818.4 L 125.0,809.5 L 166.7,804.1 L 208.3,800.5 L 250.0,812.6 L 291.7,814.4 L 333.3,817.8 L 375.0,827.9 L 416.7,839.5 L 458.3,845.9 L 500.0,819.3 L 541.7,824.4 L 583.3,822.6 L 625.0,809.1 L 666.7,789.1 L 708.3,801.7 L 750.0,810.1 L 791.7,812.9 L 833.3,824.9 L 875.0,834.0 L 916.7,853.3 L 958.3,824.4 L 1000.0,827.2" fill="none" stroke="#071b24" stroke-opacity=".15" stroke-width="1.3"/><path d="M 0.0,856.4 L 41.7,841.9 L 83.3,852.8 L 125.0,847.1 L 166.7,823.7 L 208.3,843.3 L 250.0,860.5 L 291.7,864.4 L 333.3,869.0 L 375.0,886.2 L 416.7,877.3 L 458.3,860.5 L 500.0,850.8 L 541.7,852.5 L 583.3,843.4 L 625.0,821.1 L 666.7,836.3 L 708.3,854.0 L 750.0,856.5 L 791.7,866.4 L 833.3,871.0 L 875.0,885.1 L 916.7,868.8 L 958.3,857.2 L 1000.0,855.6 L1000,1350 L0,1350Z" fill="#12313b"/><path d="M 0.0,860.4 L 41.7,845.9 L 83.3,856.8 L 125.0,851.1 L 166.7,827.7 L 208.3,847.3 L 250.0,864.5 L 291.7,868.4 L 333.3,873.0 L 375.0,890.2 L 416.7,881.3 L 458.3,864.5 L 500.0,854.8 L 541.7,856.5 L 583.3,847.4 L 625.0,825.1 L 666.7,840.3 L 708.3,858.0 L 750.0,860.5 L 791.7,870.4 L 833.3,875.0 L 875.0,889.1 L 916.7,872.8 L 958.3,861.2 L 1000.0,859.6" fill="none" stroke="#071b24" stroke-opacity=".15" stroke-width="1.3"/><path d="M 0.0,865.4 L 41.7,850.9 L 83.3,861.8 L 125.0,856.1 L 166.7,832.7 L 208.3,852.3 L 250.0,869.5 L 291.7,873.4 L 333.3,878.0 L 375.0,895.2 L 416.7,886.3 L 458.3,869.5 L 500.0,859.8 L 541.7,861.5 L 583.3,852.4 L 625.0,830.1 L 666.7,845.3 L 708.3,863.0 L 750.0,865.5 L 791.7,875.4 L 833.3,880.0 L 875.0,894.1 L 916.7,877.8 L 958.3,866.2 L 1000.0,864.6" fill="none" stroke="#071b24" stroke-opacity=".15" stroke-width="1.3"/><path d="M 0.0,880.1 L 41.7,889.9 L 83.3,875.6 L 125.0,876.3 L 166.7,888.6 L 208.3,906.6 L 250.0,921.6 L 291.7,920.0 L 333.3,913.7 L 375.0,922.7 L 416.7,910.9 L 458.3,889.0 L 500.0,881.8 L 541.7,893.0 L 583.3,882.7 L 625.0,880.1 L 666.7,896.8 L 708.3,912.4 L 750.0,915.1 L 791.7,910.6 L 833.3,918.3 L 875.0,914.7 L 916.7,895.8 L 958.3,896.5 L 1000.0,889.1 L1000,1350 L0,1350Z" fill="#254955"/><path d="M 0.0,884.1 L 41.7,893.9 L 83.3,879.6 L 125.0,880.3 L 166.7,892.6 L 208.3,910.6 L 250.0,925.6 L 291.7,924.0 L 333.3,917.7 L 375.0,926.7 L 416.7,914.9 L 458.3,893.0 L 500.0,885.8 L 541.7,897.0 L 583.3,886.7 L 625.0,884.1 L 666.7,900.8 L 708.3,916.4 L 750.0,919.1 L 791.7,914.6 L 833.3,922.3 L 875.0,918.7 L 916.7,899.8 L 958.3,900.5 L 1000.0,893.1" fill="none" stroke="#071b24" stroke-opacity=".15" stroke-width="1.3"/><path d="M 0.0,889.1 L 41.7,898.9 L 83.3,884.6 L 125.0,885.3 L 166.7,897.6 L 208.3,915.6 L 250.0,930.6 L 291.7,929.0 L 333.3,922.7 L 375.0,931.7 L 416.7,919.9 L 458.3,898.0 L 500.0,890.8 L 541.7,902.0 L 583.3,891.7 L 625.0,889.1 L 666.7,905.8 L 708.3,921.4 L 750.0,924.1 L 791.7,919.6 L 833.3,927.3 L 875.0,923.7 L 916.7,904.8 L 958.3,905.5 L 1000.0,898.1" fill="none" stroke="#071b24" stroke-opacity=".15" stroke-width="1.3"/><path d="M 0.0,921.8 L 41.7,936.1 L 83.3,933.4 L 125.0,932.3 L 166.7,953.6 L 208.3,963.9 L 250.0,964.8 L 291.7,951.9 L 333.3,966.2 L 375.0,955.0 L 416.7,929.4 L 458.3,927.5 L 500.0,936.9 L 541.7,930.9 L 583.3,930.2 L 625.0,944.1 L 666.7,965.4 L 708.3,968.2 L 750.0,969.8 L 791.7,964.8 L 833.3,956.8 L 875.0,939.5 L 916.7,932.8 L 958.3,940.1 L 1000.0,924.1 L1000,1350 L0,1350Z" fill="#67908c"/><path d="M 0.0,925.8 L 41.7,940.1 L 83.3,937.4 L 125.0,936.3 L 166.7,957.6 L 208.3,967.9 L 250.0,968.8 L 291.7,955.9 L 333.3,970.2 L 375.0,959.0 L 416.7,933.4 L 458.3,931.5 L 500.0,940.9 L 541.7,934.9 L 583.3,934.2 L 625.0,948.1 L 666.7,969.4 L 708.3,972.2 L 750.0,973.8 L 791.7,968.8 L 833.3,960.8 L 875.0,943.5 L 916.7,936.8 L 958.3,944.1 L 1000.0,928.1" fill="none" stroke="#071b24" stroke-opacity=".15" stroke-width="1.3"/><path d="M 0.0,930.8 L 41.7,945.1 L 83.3,942.4 L 125.0,941.3 L 166.7,962.6 L 208.3,972.9 L 250.0,973.8 L 291.7,960.9 L 333.3,975.2 L 375.0,964.0 L 416.7,938.4 L 458.3,936.5 L 500.0,945.9 L 541.7,939.9 L 583.3,939.2 L 625.0,953.1 L 666.7,974.4 L 708.3,977.2 L 750.0,978.8 L 791.7,973.8 L 833.3,965.8 L 875.0,948.5 L 916.7,941.8 L 958.3,949.1 L 1000.0,933.1" fill="none" stroke="#071b24" stroke-opacity=".15" stroke-width="1.3"/><path d="M 0.0,971.3 L 41.7,986.7 L 83.3,981.5 L 125.0,998.0 L 166.7,1008.9 L 208.3,1007.6 L 250.0,1009.1 L 291.7,1001.8 L 333.3,996.8 L 375.0,979.3 L 416.7,962.0 L 458.3,965.8 L 500.0,971.5 L 541.7,977.5 L 583.3,987.4 L 625.0,1011.6 L 666.7,1006.4 L 708.3,995.2 L 750.0,999.7 L 791.7,1000.4 L 833.3,986.4 L 875.0,971.4 L 916.7,964.8 L 958.3,984.7 L 1000.0,968.8 L1000,1350 L0,1350Z" fill="#dedfc2"/><path d="M 0.0,975.3 L 41.7,990.7 L 83.3,985.5 L 125.0,1002.0 L 166.7,1012.9 L 208.3,1011.6 L 250.0,1013.1 L 291.7,1005.8 L 333.3,1000.8 L 375.0,983.3 L 416.7,966.0 L 458.3,969.8 L 500.0,975.5 L 541.7,981.5 L 583.3,991.4 L 625.0,1015.6 L 666.7,1010.4 L 708.3,999.2 L 750.0,1003.7 L 791.7,1004.4 L 833.3,990.4 L 875.0,975.4 L 916.7,968.8 L 958.3,988.7 L 1000.0,972.8" fill="none" stroke="#071b24" stroke-opacity=".15" stroke-width="1.3"/><path d="M 0.0,980.3 L 41.7,995.7 L 83.3,990.5 L 125.0,1007.0 L 166.7,1017.9 L 208.3,1016.6 L 250.0,1018.1 L 291.7,1010.8 L 333.3,1005.8 L 375.0,988.3 L 416.7,971.0 L 458.3,974.8 L 500.0,980.5 L 541.7,986.5 L 583.3,996.4 L 625.0,1020.6 L 666.7,1015.4 L 708.3,1004.2 L 750.0,1008.7 L 791.7,1009.4 L 833.3,995.4 L 875.0,980.4 L 916.7,973.8 L 958.3,993.7 L 1000.0,977.8" fill="none" stroke="#071b24" stroke-opacity=".15" stroke-width="1.3"/><path d="M 0.0,1029.5 L 41.7,1035.4 L 83.3,1038.9 L 125.0,1050.9 L 166.7,1053.0 L 208.3,1053.1 L 250.0,1035.5 L 291.7,1038.6 L 333.3,1023.6 L 375.0,1012.6 L 416.7,1005.2 L 458.3,1021.7 L 500.0,1028.0 L 541.7,1036.1 L 583.3,1056.1 L 625.0,1068.9 L 666.7,1043.3 L 708.3,1038.3 L 750.0,1044.2 L 791.7,1033.4 L 833.3,1014.3 L 875.0,1022.6 L 916.7,1030.1 L 958.3,1019.3 L 1000.0,1027.2 L1000,1350 L0,1350Z" fill="#67908c"/><path d="M 0.0,1033.5 L 41.7,1039.4 L 83.3,1042.9 L 125.0,1054.9 L 166.7,1057.0 L 208.3,1057.1 L 250.0,1039.5 L 291.7,1042.6 L 333.3,1027.6 L 375.0,1016.6 L 416.7,1009.2 L 458.3,1025.7 L 500.0,1032.0 L 541.7,1040.1 L 583.3,1060.1 L 625.0,1072.9 L 666.7,1047.3 L 708.3,1042.3 L 750.0,1048.2 L 791.7,1037.4 L 833.3,1018.3 L 875.0,1026.6 L 916.7,1034.1 L 958.3,1023.3 L 1000.0,1031.2" fill="none" stroke="#071b24" stroke-opacity=".15" stroke-width="1.3"/><path d="M 0.0,1038.5 L 41.7,1044.4 L 83.3,1047.9 L 125.0,1059.9 L 166.7,1062.0 L 208.3,1062.1 L 250.0,1044.5 L 291.7,1047.6 L 333.3,1032.6 L 375.0,1021.6 L 416.7,1014.2 L 458.3,1030.7 L 500.0,1037.0 L 541.7,1045.1 L 583.3,1065.1 L 625.0,1077.9 L 666.7,1052.3 L 708.3,1047.3 L 750.0,1053.2 L 791.7,1042.4 L 833.3,1023.3 L 875.0,1031.6 L 916.7,1039.1 L 958.3,1028.3 L 1000.0,1036.2" fill="none" stroke="#071b24" stroke-opacity=".15" stroke-width="1.3"/><path d="M 0.0,1089.7 L 41.7,1082.1 L 83.3,1102.6 L 125.0,1098.5 L 166.7,1086.2 L 208.3,1076.7 L 250.0,1076.2 L 291.7,1072.8 L 333.3,1063.6 L 375.0,1056.5 L 416.7,1077.7 L 458.3,1083.1 L 500.0,1078.8 L 541.7,1093.9 L 583.3,1107.7 L 625.0,1092.1 L 666.7,1078.2 L 708.3,1080.7 L 750.0,1080.6 L 791.7,1058.7 L 833.3,1049.2 L 875.0,1073.0 L 916.7,1080.3 L 958.3,1078.6 L 1000.0,1085.7 L1000,1350 L0,1350Z" fill="#12313b"/><path d="M 0.0,1093.7 L 41.7,1086.1 L 83.3,1106.6 L 125.0,1102.5 L 166.7,1090.2 L 208.3,1080.7 L 250.0,1080.2 L 291.7,1076.8 L 333.3,1067.6 L 375.0,1060.5 L 416.7,1081.7 L 458.3,1087.1 L 500.0,1082.8 L 541.7,1097.9 L 583.3,1111.7 L 625.0,1096.1 L 666.7,1082.2 L 708.3,1084.7 L 750.0,1084.6 L 791.7,1062.7 L 833.3,1053.2 L 875.0,1077.0 L 916.7,1084.3 L 958.3,1082.6 L 1000.0,1089.7" fill="none" stroke="#071b24" stroke-opacity=".15" stroke-width="1.3"/><path d="M 0.0,1098.7 L 41.7,1091.1 L 83.3,1111.6 L 125.0,1107.5 L 166.7,1095.2 L 208.3,1085.7 L 250.0,1085.2 L 291.7,1081.8 L 333.3,1072.6 L 375.0,1065.5 L 416.7,1086.7 L 458.3,1092.1 L 500.0,1087.8 L 541.7,1102.9 L 583.3,1116.7 L 625.0,1101.1 L 666.7,1087.2 L 708.3,1089.7 L 750.0,1089.6 L 791.7,1067.7 L 833.3,1058.2 L 875.0,1082.0 L 916.7,1089.3 L 958.3,1087.6 L 1000.0,1094.7" fill="none" stroke="#071b24" stroke-opacity=".15" stroke-width="1.3"/><path d="M 0.0,1133.0 L 41.7,1131.7 L 83.3,1139.6 L 125.0,1136.1 L 166.7,1118.4 L 208.3,1105.5 L 250.0,1103.6 L 291.7,1103.5 L 333.3,1100.4 L 375.0,1118.7 L 416.7,1135.6 L 458.3,1138.8 L 500.0,1143.2 L 541.7,1157.8 L 583.3,1145.7 L 625.0,1123.3 L 666.7,1117.1 L 708.3,1113.7 L 750.0,1116.5 L 791.7,1102.7 L 833.3,1109.5 L 875.0,1125.5 L 916.7,1132.5 L 958.3,1135.0 L 1000.0,1159.8 L1000,1350 L0,1350Z" fill="#254955"/><path d="M 0.0,1137.0 L 41.7,1135.7 L 83.3,1143.6 L 125.0,1140.1 L 166.7,1122.4 L 208.3,1109.5 L 250.0,1107.6 L 291.7,1107.5 L 333.3,1104.4 L 375.0,1122.7 L 416.7,1139.6 L 458.3,1142.8 L 500.0,1147.2 L 541.7,1161.8 L 583.3,1149.7 L 625.0,1127.3 L 666.7,1121.1 L 708.3,1117.7 L 750.0,1120.5 L 791.7,1106.7 L 833.3,1113.5 L 875.0,1129.5 L 916.7,1136.5 L 958.3,1139.0 L 1000.0,1163.8" fill="none" stroke="#071b24" stroke-opacity=".15" stroke-width="1.3"/><path d="M 0.0,1142.0 L 41.7,1140.7 L 83.3,1148.6 L 125.0,1145.1 L 166.7,1127.4 L 208.3,1114.5 L 250.0,1112.6 L 291.7,1112.5 L 333.3,1109.4 L 375.0,1127.7 L 416.7,1144.6 L 458.3,1147.8 L 500.0,1152.2 L 541.7,1166.8 L 583.3,1154.7 L 625.0,1132.3 L 666.7,1126.1 L 708.3,1122.7 L 750.0,1125.5 L 791.7,1111.7 L 833.3,1118.5 L 875.0,1134.5 L 916.7,1141.5 L 958.3,1144.0 L 1000.0,1168.8" fill="none" stroke="#071b24" stroke-opacity=".15" stroke-width="1.3"/><path d="M 0.0,1186.4 L 41.7,1179.2 L 83.3,1180.2 L 125.0,1163.0 L 166.7,1146.8 L 208.3,1147.7 L 250.0,1155.1 L 291.7,1148.0 L 333.3,1160.3 L 375.0,1182.4 L 416.7,1189.4 L 458.3,1193.3 L 500.0,1186.8 L 541.7,1192.9 L 583.3,1170.6 L 625.0,1153.2 L 666.7,1147.3 L 708.3,1161.4 L 750.0,1155.4 L 791.7,1155.2 L 833.3,1175.6 L 875.0,1180.6 L 916.7,1185.5 L 958.3,1195.2 L 1000.0,1196.8 L1000,1350 L0,1350Z" fill="#67908c"/><path d="M 0.0,1190.4 L 41.7,1183.2 L 83.3,1184.2 L 125.0,1167.0 L 166.7,1150.8 L 208.3,1151.7 L 250.0,1159.1 L 291.7,1152.0 L 333.3,1164.3 L 375.0,1186.4 L 416.7,1193.4 L 458.3,1197.3 L 500.0,1190.8 L 541.7,1196.9 L 583.3,1174.6 L 625.0,1157.2 L 666.7,1151.3 L 708.3,1165.4 L 750.0,1159.4 L 791.7,1159.2 L 833.3,1179.6 L 875.0,1184.6 L 916.7,1189.5 L 958.3,1199.2 L 1000.0,1200.8" fill="none" stroke="#071b24" stroke-opacity=".15" stroke-width="1.3"/><path d="M 0.0,1195.4 L 41.7,1188.2 L 83.3,1189.2 L 125.0,1172.0 L 166.7,1155.8 L 208.3,1156.7 L 250.0,1164.1 L 291.7,1157.0 L 333.3,1169.3 L 375.0,1191.4 L 416.7,1198.4 L 458.3,1202.3 L 500.0,1195.8 L 541.7,1201.9 L 583.3,1179.6 L 625.0,1162.2 L 666.7,1156.3 L 708.3,1170.4 L 750.0,1164.4 L 791.7,1164.2 L 833.3,1184.6 L 875.0,1189.6 L 916.7,1194.5 L 958.3,1204.2 L 1000.0,1205.8" fill="none" stroke="#071b24" stroke-opacity=".15" stroke-width="1.3"/><path d="M 0.0,1227.1 L 41.7,1224.1 L 83.3,1205.8 L 125.0,1191.7 L 166.7,1192.1 L 208.3,1209.6 L 250.0,1201.7 L 291.7,1207.8 L 333.3,1233.1 L 375.0,1245.9 L 416.7,1235.1 L 458.3,1223.5 L 500.0,1226.5 L 541.7,1216.1 L 583.3,1194.2 L 625.0,1195.1 L 666.7,1209.2 L 708.3,1203.5 L 750.0,1201.9 L 791.7,1219.7 L 833.3,1237.4 L 875.0,1223.4 L 916.7,1237.3 L 958.3,1233.6 L 1000.0,1221.8 L1000,1350 L0,1350Z" fill="#dedfc2"/><path d="M 0.0,1231.1 L 41.7,1228.1 L 83.3,1209.8 L 125.0,1195.7 L 166.7,1196.1 L 208.3,1213.6 L 250.0,1205.7 L 291.7,1211.8 L 333.3,1237.1 L 375.0,1249.9 L 416.7,1239.1 L 458.3,1227.5 L 500.0,1230.5 L 541.7,1220.1 L 583.3,1198.2 L 625.0,1199.1 L 666.7,1213.2 L 708.3,1207.5 L 750.0,1205.9 L 791.7,1223.7 L 833.3,1241.4 L 875.0,1227.4 L 916.7,1241.3 L 958.3,1237.6 L 1000.0,1225.8" fill="none" stroke="#071b24" stroke-opacity=".15" stroke-width="1.3"/><path d="M 0.0,1236.1 L 41.7,1233.1 L 83.3,1214.8 L 125.0,1200.7 L 166.7,1201.1 L 208.3,1218.6 L 250.0,1210.7 L 291.7,1216.8 L 333.3,1242.1 L 375.0,1254.9 L 416.7,1244.1 L 458.3,1232.5 L 500.0,1235.5 L 541.7,1225.1 L 583.3,1203.2 L 625.0,1204.1 L 666.7,1218.2 L 708.3,1212.5 L 750.0,1210.9 L 791.7,1228.7 L 833.3,1246.4 L 875.0,1232.4 L 916.7,1246.3 L 958.3,1242.6 L 1000.0,1230.8" fill="none" stroke="#071b24" stroke-opacity=".15" stroke-width="1.3"/><path d="M 0.0,1262.2 L 41.7,1252.8 L 83.3,1226.5 L 125.0,1233.1 L 166.7,1242.7 L 208.3,1254.2 L 250.0,1256.7 L 291.7,1276.3 L 333.3,1294.9 L 375.0,1278.0 L 416.7,1265.3 L 458.3,1269.9 L 500.0,1259.7 L 541.7,1235.3 L 583.3,1237.6 L 625.0,1252.9 L 666.7,1256.4 L 708.3,1250.6 L 750.0,1266.6 L 791.7,1283.0 L 833.3,1291.2 L 875.0,1272.5 L 916.7,1272.7 L 958.3,1268.2 L 1000.0,1251.1 L1000,1350 L0,1350Z" fill="#67908c"/><path d="M 0.0,1266.2 L 41.7,1256.8 L 83.3,1230.5 L 125.0,1237.1 L 166.7,1246.7 L 208.3,1258.2 L 250.0,1260.7 L 291.7,1280.3 L 333.3,1298.9 L 375.0,1282.0 L 416.7,1269.3 L 458.3,1273.9 L 500.0,1263.7 L 541.7,1239.3 L 583.3,1241.6 L 625.0,1256.9 L 666.7,1260.4 L 708.3,1254.6 L 750.0,1270.6 L 791.7,1287.0 L 833.3,1295.2 L 875.0,1276.5 L 916.7,1276.7 L 958.3,1272.2 L 1000.0,1255.1" fill="none" stroke="#071b24" stroke-opacity=".15" stroke-width="1.3"/><path d="M 0.0,1271.2 L 41.7,1261.8 L 83.3,1235.5 L 125.0,1242.1 L 166.7,1251.7 L 208.3,1263.2 L 250.0,1265.7 L 291.7,1285.3 L 333.3,1303.9 L 375.0,1287.0 L 416.7,1274.3 L 458.3,1278.9 L 500.0,1268.7 L 541.7,1244.3 L 583.3,1246.6 L 625.0,1261.9 L 666.7,1265.4 L 708.3,1259.6 L 750.0,1275.6 L 791.7,1292.0 L 833.3,1300.2 L 875.0,1281.5 L 916.7,1281.7 L 958.3,1277.2 L 1000.0,1260.1" fill="none" stroke="#071b24" stroke-opacity=".15" stroke-width="1.3"/><rect width="1000" height="1350" fill="url(#grain)" opacity=".11"/></svg><text x="500" y="1392" font-family="Georgia,serif" font-size="62" text-anchor="middle" fill="#182525">V1298 Tau b</text><path d="M390 1435H610" stroke="#8a806d" stroke-width="2"/></svg>