<svg xmlns="http://www.w3.org/2000/svg" width="1600" height="992" viewBox="0 0 1000 620"><title>WASP-2 b — landscape illustration</title><defs><pattern id="grain" width="9" height="11" patternUnits="userSpaceOnUse"><path d="M1 2h1M5 7h1M8 4h1" stroke="#efe1c8" stroke-width=".8"/></pattern></defs><rect width="1000" height="620" fill="#1d151d"/><circle cx="867" cy="58" r="1.3" fill="#f6d09c" opacity="0.61"/><circle cx="250" cy="149" r="0.8" fill="#f6d09c" opacity="0.18"/><circle cx="225" cy="220" r="0.8" fill="#f6d09c" opacity="0.18"/><circle cx="773" cy="138" r="1.3" fill="#f6d09c" opacity="0.48"/><circle cx="502" cy="281" r="0.8" fill="#f6d09c" opacity="0.47"/><circle cx="425" cy="185" r="0.8" fill="#f6d09c" opacity="0.40"/><circle cx="399" cy="165" r="1" fill="#f6d09c" opacity="0.17"/><circle cx="54" cy="140" r="1.8" fill="#f6d09c" opacity="0.19"/><circle cx="408" cy="210" r="1.3" fill="#f6d09c" opacity="0.49"/><circle cx="646" cy="186" r="1.3" fill="#f6d09c" opacity="0.19"/><circle cx="221" cy="122" r="1.8" fill="#f6d09c" opacity="0.24"/><circle cx="116" cy="100" r="0.8" fill="#f6d09c" opacity="0.52"/><circle cx="354" cy="46" r="1.8" fill="#f6d09c" opacity="0.42"/><circle cx="813" cy="64" r="0.8" fill="#f6d09c" opacity="0.62"/><circle cx="710" cy="301" r="1.8" fill="#f6d09c" opacity="0.50"/><circle cx="698" cy="214" r="1.8" fill="#f6d09c" opacity="0.24"/><circle cx="703" cy="223" r="0.8" fill="#f6d09c" opacity="0.44"/><circle cx="764" cy="136" r="1.8" fill="#f6d09c" opacity="0.48"/><circle cx="325" cy="137" r="0.8" fill="#f6d09c" opacity="0.48"/><circle cx="209" cy="138" r="1.8" fill="#f6d09c" opacity="0.32"/><circle cx="421" cy="169" r="0.8" fill="#f6d09c" opacity="0.62"/><circle cx="241" cy="263" r="1.3" fill="#f6d09c" opacity="0.29"/><circle cx="193" cy="269" r="1.3" fill="#f6d09c" opacity="0.53"/><circle cx="427" cy="176" r="1" fill="#f6d09c" opacity="0.36"/><circle cx="183" cy="85" r="1.3" fill="#f6d09c" opacity="0.45"/><circle cx="266" cy="48" r="1.3" fill="#f6d09c" opacity="0.27"/><circle cx="883" cy="29" r="1.8" fill="#f6d09c" opacity="0.61"/><circle cx="795" cy="79" r="1.8" fill="#f6d09c" opacity="0.30"/><circle cx="890" cy="281" r="1.8" fill="#f6d09c" opacity="0.27"/><circle cx="795" cy="254" r="1.8" fill="#f6d09c" opacity="0.59"/><circle cx="56" cy="146" r="1.8" fill="#f6d09c" opacity="0.30"/><circle cx="279" cy="107" r="1.8" fill="#f6d09c" opacity="0.17"/><circle cx="112" cy="64" r="1.8" fill="#f6d09c" opacity="0.60"/><circle cx="54" cy="31" r="1" fill="#f6d09c" opacity="0.25"/><circle cx="466" cy="219" r="0.8" fill="#f6d09c" opacity="0.31"/><circle cx="672" cy="210" r="0.8" fill="#f6d09c" opacity="0.27"/><circle cx="31" cy="210" r="1.3" fill="#f6d09c" opacity="0.48"/><circle cx="521" cy="263" r="1.8" fill="#f6d09c" opacity="0.35"/><circle cx="712" cy="79" r="1.3" fill="#f6d09c" opacity="0.37"/><circle cx="523" cy="249" r="1.8" fill="#f6d09c" opacity="0.25"/><circle cx="481" cy="112" r="1.3" fill="#f6d09c" opacity="0.46"/><circle cx="268" cy="86" r="0.8" fill="#f6d09c" opacity="0.40"/><circle cx="898" cy="28" r="1.3" fill="#f6d09c" opacity="0.44"/><circle cx="178" cy="304" r="1.8" fill="#f6d09c" opacity="0.26"/><circle cx="478" cy="252" r="1" fill="#f6d09c" opacity="0.50"/><circle cx="708" cy="179.79999999999998" r="115.50178170750502" fill="#b67f66" opacity=".09"/><circle cx="708" cy="179.79999999999998" r="90.2357669589883" fill="#f6d09c"/><path d="M 0.0,310.0 L 41.7,324.9 L 83.3,325.3 L 125.0,332.7 L 166.7,339.1 L 208.3,323.9 L 250.0,302.1 L 291.7,287.9 L 333.3,291.9 L 375.0,295.5 L 416.7,283.5 L 458.3,300.1 L 500.0,322.4 L 541.7,324.4 L 583.3,331.9 L 625.0,340.3 L 666.7,324.0 L 708.3,311.4 L 750.0,296.6 L 791.7,306.6 L 833.3,286.7 L 875.0,289.2 L 916.7,300.1 L 958.3,313.5 L 1000.0,319.2 L1000,620 L0,620Z" fill="#65424a"/><path d="M 0.0,314.0 L 41.7,328.9 L 83.3,329.3 L 125.0,336.7 L 166.7,343.1 L 208.3,327.9 L 250.0,306.1 L 291.7,291.9 L 333.3,295.9 L 375.0,299.5 L 416.7,287.5 L 458.3,304.1 L 500.0,326.4 L 541.7,328.4 L 583.3,335.9 L 625.0,344.3 L 666.7,328.0 L 708.3,315.4 L 750.0,300.6 L 791.7,310.6 L 833.3,290.7 L 875.0,293.2 L 916.7,304.1 L 958.3,317.5 L 1000.0,323.2" fill="none" stroke="#1d151d" stroke-opacity=".15" stroke-width="1.3"/><path d="M 0.0,319.0 L 41.7,333.9 L 83.3,334.3 L 125.0,341.7 L 166.7,348.1 L 208.3,332.9 L 250.0,311.1 L 291.7,296.9 L 333.3,300.9 L 375.0,304.5 L 416.7,292.5 L 458.3,309.1 L 500.0,331.4 L 541.7,333.4 L 583.3,340.9 L 625.0,349.3 L 666.7,333.0 L 708.3,320.4 L 750.0,305.6 L 791.7,315.6 L 833.3,295.7 L 875.0,298.2 L 916.7,309.1 L 958.3,322.5 L 1000.0,328.2" fill="none" stroke="#1d151d" stroke-opacity=".15" stroke-width="1.3"/><path d="M 0.0,349.9 L 41.7,346.9 L 83.3,348.1 L 125.0,351.7 L 166.7,341.3 L 208.3,323.0 L 250.0,314.6 L 291.7,306.6 L 333.3,310.9 L 375.0,314.4 L 416.7,321.2 L 458.3,346.8 L 500.0,345.7 L 541.7,350.0 L 583.3,357.4 L 625.0,347.2 L 666.7,331.9 L 708.3,314.2 L 750.0,308.1 L 791.7,317.5 L 833.3,311.4 L 875.0,316.5 L 916.7,335.8 L 958.3,341.5 L 1000.0,352.7 L1000,620 L0,620Z" fill="#b67f66"/><path d="M 0.0,353.9 L 41.7,350.9 L 83.3,352.1 L 125.0,355.7 L 166.7,345.3 L 208.3,327.0 L 250.0,318.6 L 291.7,310.6 L 333.3,314.9 L 375.0,318.4 L 416.7,325.2 L 458.3,350.8 L 500.0,349.7 L 541.7,354.0 L 583.3,361.4 L 625.0,351.2 L 666.7,335.9 L 708.3,318.2 L 750.0,312.1 L 791.7,321.5 L 833.3,315.4 L 875.0,320.5 L 916.7,339.8 L 958.3,345.5 L 1000.0,356.7" fill="none" stroke="#1d151d" stroke-opacity=".15" stroke-width="1.3"/><path d="M 0.0,358.9 L 41.7,355.9 L 83.3,357.1 L 125.0,360.7 L 166.7,350.3 L 208.3,332.0 L 250.0,323.6 L 291.7,315.6 L 333.3,319.9 L 375.0,323.4 L 416.7,330.2 L 458.3,355.8 L 500.0,354.7 L 541.7,359.0 L 583.3,366.4 L 625.0,356.2 L 666.7,340.9 L 708.3,323.2 L 750.0,317.1 L 791.7,326.5 L 833.3,320.4 L 875.0,325.5 L 916.7,344.8 L 958.3,350.5 L 1000.0,361.7" fill="none" stroke="#1d151d" stroke-opacity=".15" stroke-width="1.3"/><path d="M 0.0,370.6 L 41.7,372.8 L 83.3,362.3 L 125.0,357.9 L 166.7,342.9 L 208.3,328.7 L 250.0,328.3 L 291.7,339.4 L 333.3,346.0 L 375.0,345.2 L 416.7,368.0 L 458.3,384.9 L 500.0,373.8 L 541.7,355.7 L 583.3,364.4 L 625.0,352.9 L 666.7,339.1 L 708.3,337.4 L 750.0,333.9 L 791.7,340.9 L 833.3,336.5 L 875.0,354.3 L 916.7,368.6 L 958.3,375.8 L 1000.0,359.8 L1000,620 L0,620Z" fill="#f6d09c"/><path d="M 0.0,374.6 L 41.7,376.8 L 83.3,366.3 L 125.0,361.9 L 166.7,346.9 L 208.3,332.7 L 250.0,332.3 L 291.7,343.4 L 333.3,350.0 L 375.0,349.2 L 416.7,372.0 L 458.3,388.9 L 500.0,377.8 L 541.7,359.7 L 583.3,368.4 L 625.0,356.9 L 666.7,343.1 L 708.3,341.4 L 750.0,337.9 L 791.7,344.9 L 833.3,340.5 L 875.0,358.3 L 916.7,372.6 L 958.3,379.8 L 1000.0,363.8" fill="none" stroke="#1d151d" stroke-opacity=".15" stroke-width="1.3"/><path d="M 0.0,379.6 L 41.7,381.8 L 83.3,371.3 L 125.0,366.9 L 166.7,351.9 L 208.3,337.7 L 250.0,337.3 L 291.7,348.4 L 333.3,355.0 L 375.0,354.2 L 416.7,377.0 L 458.3,393.9 L 500.0,382.8 L 541.7,364.7 L 583.3,373.4 L 625.0,361.9 L 666.7,348.1 L 708.3,346.4 L 750.0,342.9 L 791.7,349.9 L 833.3,345.5 L 875.0,363.3 L 916.7,377.6 L 958.3,384.8 L 1000.0,368.8" fill="none" stroke="#1d151d" stroke-opacity=".15" stroke-width="1.3"/><path d="M 0.0,394.4 L 41.7,373.1 L 83.3,370.4 L 125.0,372.5 L 166.7,339.7 L 208.3,353.3 L 250.0,367.8 L 291.7,370.1 L 333.3,371.8 L 375.0,377.0 L 416.7,396.4 L 458.3,390.6 L 500.0,381.1 L 541.7,376.4 L 583.3,373.3 L 625.0,362.4 L 666.7,347.0 L 708.3,346.2 L 750.0,368.0 L 791.7,366.0 L 833.3,378.5 L 875.0,403.3 L 916.7,399.5 L 958.3,386.6 L 1000.0,376.4 L1000,620 L0,620Z" fill="#b67f66"/><path d="M 0.0,398.4 L 41.7,377.1 L 83.3,374.4 L 125.0,376.5 L 166.7,343.7 L 208.3,357.3 L 250.0,371.8 L 291.7,374.1 L 333.3,375.8 L 375.0,381.0 L 416.7,400.4 L 458.3,394.6 L 500.0,385.1 L 541.7,380.4 L 583.3,377.3 L 625.0,366.4 L 666.7,351.0 L 708.3,350.2 L 750.0,372.0 L 791.7,370.0 L 833.3,382.5 L 875.0,407.3 L 916.7,403.5 L 958.3,390.6 L 1000.0,380.4" fill="none" stroke="#1d151d" stroke-opacity=".15" stroke-width="1.3"/><path d="M 0.0,403.4 L 41.7,382.1 L 83.3,379.4 L 125.0,381.5 L 166.7,348.7 L 208.3,362.3 L 250.0,376.8 L 291.7,379.1 L 333.3,380.8 L 375.0,386.0 L 416.7,405.4 L 458.3,399.6 L 500.0,390.1 L 541.7,385.4 L 583.3,382.3 L 625.0,371.4 L 666.7,356.0 L 708.3,355.2 L 750.0,377.0 L 791.7,375.0 L 833.3,387.5 L 875.0,412.3 L 916.7,408.5 L 958.3,395.6 L 1000.0,385.4" fill="none" stroke="#1d151d" stroke-opacity=".15" stroke-width="1.3"/><path d="M 0.0,393.2 L 41.7,380.6 L 83.3,386.5 L 125.0,366.9 L 166.7,364.7 L 208.3,375.4 L 250.0,397.6 L 291.7,403.9 L 333.3,408.5 L 375.0,413.6 L 416.7,424.0 L 458.3,398.1 L 500.0,388.6 L 541.7,385.1 L 583.3,384.8 L 625.0,356.5 L 666.7,369.3 L 708.3,388.2 L 750.0,393.7 L 791.7,401.3 L 833.3,410.1 L 875.0,427.7 L 916.7,413.6 L 958.3,395.7 L 1000.0,393.0 L1000,620 L0,620Z" fill="#352432"/><path d="M 0.0,397.2 L 41.7,384.6 L 83.3,390.5 L 125.0,370.9 L 166.7,368.7 L 208.3,379.4 L 250.0,401.6 L 291.7,407.9 L 333.3,412.5 L 375.0,417.6 L 416.7,428.0 L 458.3,402.1 L 500.0,392.6 L 541.7,389.1 L 583.3,388.8 L 625.0,360.5 L 666.7,373.3 L 708.3,392.2 L 750.0,397.7 L 791.7,405.3 L 833.3,414.1 L 875.0,431.7 L 916.7,417.6 L 958.3,399.7 L 1000.0,397.0" fill="none" stroke="#1d151d" stroke-opacity=".15" stroke-width="1.3"/><path d="M 0.0,402.2 L 41.7,389.6 L 83.3,395.5 L 125.0,375.9 L 166.7,373.7 L 208.3,384.4 L 250.0,406.6 L 291.7,412.9 L 333.3,417.5 L 375.0,422.6 L 416.7,433.0 L 458.3,407.1 L 500.0,397.6 L 541.7,394.1 L 583.3,393.8 L 625.0,365.5 L 666.7,378.3 L 708.3,397.2 L 750.0,402.7 L 791.7,410.3 L 833.3,419.1 L 875.0,436.7 L 916.7,422.6 L 958.3,404.7 L 1000.0,402.0" fill="none" stroke="#1d151d" stroke-opacity=".15" stroke-width="1.3"/><path d="M 0.0,392.1 L 41.7,397.3 L 83.3,401.8 L 125.0,386.0 L 166.7,396.3 L 208.3,419.9 L 250.0,428.9 L 291.7,433.3 L 333.3,431.7 L 375.0,433.1 L 416.7,422.7 L 458.3,404.7 L 500.0,407.3 L 541.7,395.8 L 583.3,388.0 L 625.0,388.3 L 666.7,412.6 L 708.3,422.4 L 750.0,421.2 L 791.7,424.9 L 833.3,440.1 L 875.0,426.6 L 916.7,410.9 L 958.3,403.6 L 1000.0,396.1 L1000,620 L0,620Z" fill="#65424a"/><path d="M 0.0,396.1 L 41.7,401.3 L 83.3,405.8 L 125.0,390.0 L 166.7,400.3 L 208.3,423.9 L 250.0,432.9 L 291.7,437.3 L 333.3,435.7 L 375.0,437.1 L 416.7,426.7 L 458.3,408.7 L 500.0,411.3 L 541.7,399.8 L 583.3,392.0 L 625.0,392.3 L 666.7,416.6 L 708.3,426.4 L 750.0,425.2 L 791.7,428.9 L 833.3,444.1 L 875.0,430.6 L 916.7,414.9 L 958.3,407.6 L 1000.0,400.1" fill="none" stroke="#1d151d" stroke-opacity=".15" stroke-width="1.3"/><path d="M 0.0,401.1 L 41.7,406.3 L 83.3,410.8 L 125.0,395.0 L 166.7,405.3 L 208.3,428.9 L 250.0,437.9 L 291.7,442.3 L 333.3,440.7 L 375.0,442.1 L 416.7,431.7 L 458.3,413.7 L 500.0,416.3 L 541.7,404.8 L 583.3,397.0 L 625.0,397.3 L 666.7,421.6 L 708.3,431.4 L 750.0,430.2 L 791.7,433.9 L 833.3,449.1 L 875.0,435.6 L 916.7,419.9 L 958.3,412.6 L 1000.0,405.1" fill="none" stroke="#1d151d" stroke-opacity=".15" stroke-width="1.3"/><path d="M 0.0,419.3 L 41.7,422.6 L 83.3,425.4 L 125.0,419.7 L 166.7,442.0 L 208.3,456.5 L 250.0,453.6 L 291.7,449.8 L 333.3,459.5 L 375.0,442.1 L 416.7,424.3 L 458.3,417.5 L 500.0,413.6 L 541.7,422.7 L 583.3,420.6 L 625.0,433.6 L 666.7,453.7 L 708.3,446.5 L 750.0,452.6 L 791.7,458.7 L 833.3,454.2 L 875.0,428.6 L 916.7,423.4 L 958.3,421.6 L 1000.0,411.6 L1000,620 L0,620Z" fill="#b67f66"/><path d="M 0.0,423.3 L 41.7,426.6 L 83.3,429.4 L 125.0,423.7 L 166.7,446.0 L 208.3,460.5 L 250.0,457.6 L 291.7,453.8 L 333.3,463.5 L 375.0,446.1 L 416.7,428.3 L 458.3,421.5 L 500.0,417.6 L 541.7,426.7 L 583.3,424.6 L 625.0,437.6 L 666.7,457.7 L 708.3,450.5 L 750.0,456.6 L 791.7,462.7 L 833.3,458.2 L 875.0,432.6 L 916.7,427.4 L 958.3,425.6 L 1000.0,415.6" fill="none" stroke="#1d151d" stroke-opacity=".15" stroke-width="1.3"/><path d="M 0.0,428.3 L 41.7,431.6 L 83.3,434.4 L 125.0,428.7 L 166.7,451.0 L 208.3,465.5 L 250.0,462.6 L 291.7,458.8 L 333.3,468.5 L 375.0,451.1 L 416.7,433.3 L 458.3,426.5 L 500.0,422.6 L 541.7,431.7 L 583.3,429.6 L 625.0,442.6 L 666.7,462.7 L 708.3,455.5 L 750.0,461.6 L 791.7,467.7 L 833.3,463.2 L 875.0,437.6 L 916.7,432.4 L 958.3,430.6 L 1000.0,420.6" fill="none" stroke="#1d151d" stroke-opacity=".15" stroke-width="1.3"/><path d="M 0.0,444.9 L 41.7,445.5 L 83.3,446.0 L 125.0,462.3 L 166.7,483.4 L 208.3,478.2 L 250.0,466.8 L 291.7,461.3 L 333.3,461.4 L 375.0,441.5 L 416.7,426.9 L 458.3,437.0 L 500.0,450.0 L 541.7,436.8 L 583.3,451.9 L 625.0,478.6 L 666.7,475.1 L 708.3,459.8 L 750.0,478.3 L 791.7,466.9 L 833.3,450.1 L 875.0,439.8 L 916.7,446.2 L 958.3,442.0 L 1000.0,437.6 L1000,620 L0,620Z" fill="#f6d09c"/><path d="M 0.0,448.9 L 41.7,449.5 L 83.3,450.0 L 125.0,466.3 L 166.7,487.4 L 208.3,482.2 L 250.0,470.8 L 291.7,465.3 L 333.3,465.4 L 375.0,445.5 L 416.7,430.9 L 458.3,441.0 L 500.0,454.0 L 541.7,440.8 L 583.3,455.9 L 625.0,482.6 L 666.7,479.1 L 708.3,463.8 L 750.0,482.3 L 791.7,470.9 L 833.3,454.1 L 875.0,443.8 L 916.7,450.2 L 958.3,446.0 L 1000.0,441.6" fill="none" stroke="#1d151d" stroke-opacity=".15" stroke-width="1.3"/><path d="M 0.0,453.9 L 41.7,454.5 L 83.3,455.0 L 125.0,471.3 L 166.7,492.4 L 208.3,487.2 L 250.0,475.8 L 291.7,470.3 L 333.3,470.4 L 375.0,450.5 L 416.7,435.9 L 458.3,446.0 L 500.0,459.0 L 541.7,445.8 L 583.3,460.9 L 625.0,487.6 L 666.7,484.1 L 708.3,468.8 L 750.0,487.3 L 791.7,475.9 L 833.3,459.1 L 875.0,448.8 L 916.7,455.2 L 958.3,451.0 L 1000.0,446.6" fill="none" stroke="#1d151d" stroke-opacity=".15" stroke-width="1.3"/><path d="M 0.0,470.4 L 41.7,475.9 L 83.3,484.4 L 125.0,502.3 L 166.7,495.8 L 208.3,487.2 L 250.0,480.8 L 291.7,478.3 L 333.3,470.7 L 375.0,441.2 L 416.7,462.0 L 458.3,470.3 L 500.0,470.9 L 541.7,475.3 L 583.3,489.4 L 625.0,498.8 L 666.7,491.3 L 708.3,489.6 L 750.0,484.0 L 791.7,468.3 L 833.3,456.3 L 875.0,458.0 L 916.7,453.5 L 958.3,463.5 L 1000.0,467.0 L1000,620 L0,620Z" fill="#b67f66"/><path d="M 0.0,474.4 L 41.7,479.9 L 83.3,488.4 L 125.0,506.3 L 166.7,499.8 L 208.3,491.2 L 250.0,484.8 L 291.7,482.3 L 333.3,474.7 L 375.0,445.2 L 416.7,466.0 L 458.3,474.3 L 500.0,474.9 L 541.7,479.3 L 583.3,493.4 L 625.0,502.8 L 666.7,495.3 L 708.3,493.6 L 750.0,488.0 L 791.7,472.3 L 833.3,460.3 L 875.0,462.0 L 916.7,457.5 L 958.3,467.5 L 1000.0,471.0" fill="none" stroke="#1d151d" stroke-opacity=".15" stroke-width="1.3"/><path d="M 0.0,479.4 L 41.7,484.9 L 83.3,493.4 L 125.0,511.3 L 166.7,504.8 L 208.3,496.2 L 250.0,489.8 L 291.7,487.3 L 333.3,479.7 L 375.0,450.2 L 416.7,471.0 L 458.3,479.3 L 500.0,479.9 L 541.7,484.3 L 583.3,498.4 L 625.0,507.8 L 666.7,500.3 L 708.3,498.6 L 750.0,493.0 L 791.7,477.3 L 833.3,465.3 L 875.0,467.0 L 916.7,462.5 L 958.3,472.5 L 1000.0,476.0" fill="none" stroke="#1d151d" stroke-opacity=".15" stroke-width="1.3"/><path d="M 0.0,502.2 L 41.7,505.7 L 83.3,507.3 L 125.0,530.0 L 166.7,515.5 L 208.3,491.1 L 250.0,491.6 L 291.7,477.8 L 333.3,465.4 L 375.0,475.8 L 416.7,489.1 L 458.3,499.2 L 500.0,495.7 L 541.7,519.1 L 583.3,533.4 L 625.0,519.3 L 666.7,503.9 L 708.3,496.3 L 750.0,486.1 L 791.7,471.7 L 833.3,460.8 L 875.0,488.7 L 916.7,496.3 L 958.3,492.3 L 1000.0,505.7 L1000,620 L0,620Z" fill="#352432"/><path d="M 0.0,506.2 L 41.7,509.7 L 83.3,511.3 L 125.0,534.0 L 166.7,519.5 L 208.3,495.1 L 250.0,495.6 L 291.7,481.8 L 333.3,469.4 L 375.0,479.8 L 416.7,493.1 L 458.3,503.2 L 500.0,499.7 L 541.7,523.1 L 583.3,537.4 L 625.0,523.3 L 666.7,507.9 L 708.3,500.3 L 750.0,490.1 L 791.7,475.7 L 833.3,464.8 L 875.0,492.7 L 916.7,500.3 L 958.3,496.3 L 1000.0,509.7" fill="none" stroke="#1d151d" stroke-opacity=".15" stroke-width="1.3"/><path d="M 0.0,511.2 L 41.7,514.7 L 83.3,516.3 L 125.0,539.0 L 166.7,524.5 L 208.3,500.1 L 250.0,500.6 L 291.7,486.8 L 333.3,474.4 L 375.0,484.8 L 416.7,498.1 L 458.3,508.2 L 500.0,504.7 L 541.7,528.1 L 583.3,542.4 L 625.0,528.3 L 666.7,512.9 L 708.3,505.3 L 750.0,495.1 L 791.7,480.7 L 833.3,469.8 L 875.0,497.7 L 916.7,505.3 L 958.3,501.3 L 1000.0,514.7" fill="none" stroke="#1d151d" stroke-opacity=".15" stroke-width="1.3"/><path d="M 0.0,533.7 L 41.7,540.5 L 83.3,540.7 L 125.0,528.3 L 166.7,509.4 L 208.3,503.8 L 250.0,506.6 L 291.7,501.5 L 333.3,485.3 L 375.0,510.4 L 416.7,526.4 L 458.3,531.8 L 500.0,535.7 L 541.7,545.0 L 583.3,536.5 L 625.0,518.1 L 666.7,507.5 L 708.3,501.4 L 750.0,498.4 L 791.7,495.4 L 833.3,504.5 L 875.0,521.0 L 916.7,520.3 L 958.3,533.3 L 1000.0,550.6 L1000,620 L0,620Z" fill="#65424a"/><path d="M 0.0,537.7 L 41.7,544.5 L 83.3,544.7 L 125.0,532.3 L 166.7,513.4 L 208.3,507.8 L 250.0,510.6 L 291.7,505.5 L 333.3,489.3 L 375.0,514.4 L 416.7,530.4 L 458.3,535.8 L 500.0,539.7 L 541.7,549.0 L 583.3,540.5 L 625.0,522.1 L 666.7,511.5 L 708.3,505.4 L 750.0,502.4 L 791.7,499.4 L 833.3,508.5 L 875.0,525.0 L 916.7,524.3 L 958.3,537.3 L 1000.0,554.6" fill="none" stroke="#1d151d" stroke-opacity=".15" stroke-width="1.3"/><path d="M 0.0,542.7 L 41.7,549.5 L 83.3,549.7 L 125.0,537.3 L 166.7,518.4 L 208.3,512.8 L 250.0,515.6 L 291.7,510.5 L 333.3,494.3 L 375.0,519.4 L 416.7,535.4 L 458.3,540.8 L 500.0,544.7 L 541.7,554.0 L 583.3,545.5 L 625.0,527.1 L 666.7,516.5 L 708.3,510.4 L 750.0,507.4 L 791.7,504.4 L 833.3,513.5 L 875.0,530.0 L 916.7,529.3 L 958.3,542.3 L 1000.0,559.6" fill="none" stroke="#1d151d" stroke-opacity=".15" stroke-width="1.3"/><path d="M 0.0,542.8 L 41.7,549.5 L 83.3,551.2 L 125.0,532.4 L 166.7,518.8 L 208.3,525.0 L 250.0,511.6 L 291.7,514.5 L 333.3,530.9 L 375.0,549.5 L 416.7,560.6 L 458.3,543.6 L 500.0,562.8 L 541.7,558.6 L 583.3,538.0 L 625.0,526.5 L 666.7,514.7 L 708.3,530.3 L 750.0,519.9 L 791.7,518.4 L 833.3,542.7 L 875.0,550.0 L 916.7,543.0 L 958.3,551.7 L 1000.0,568.2 L1000,620 L0,620Z" fill="#b67f66"/><path d="M 0.0,546.8 L 41.7,553.5 L 83.3,555.2 L 125.0,536.4 L 166.7,522.8 L 208.3,529.0 L 250.0,515.6 L 291.7,518.5 L 333.3,534.9 L 375.0,553.5 L 416.7,564.6 L 458.3,547.6 L 500.0,566.8 L 541.7,562.6 L 583.3,542.0 L 625.0,530.5 L 666.7,518.7 L 708.3,534.3 L 750.0,523.9 L 791.7,522.4 L 833.3,546.7 L 875.0,554.0 L 916.7,547.0 L 958.3,555.7 L 1000.0,572.2" fill="none" stroke="#1d151d" stroke-opacity=".15" stroke-width="1.3"/><path d="M 0.0,551.8 L 41.7,558.5 L 83.3,560.2 L 125.0,541.4 L 166.7,527.8 L 208.3,534.0 L 250.0,520.6 L 291.7,523.5 L 333.3,539.9 L 375.0,558.5 L 416.7,569.6 L 458.3,552.6 L 500.0,571.8 L 541.7,567.6 L 583.3,547.0 L 625.0,535.5 L 666.7,523.7 L 708.3,539.3 L 750.0,528.9 L 791.7,527.4 L 833.3,551.7 L 875.0,559.0 L 916.7,552.0 L 958.3,560.7 L 1000.0,577.2" fill="none" stroke="#1d151d" stroke-opacity=".15" stroke-width="1.3"/><path d="M 0.0,564.4 L 41.7,566.6 L 83.3,550.9 L 125.0,541.0 L 166.7,539.7 L 208.3,555.1 L 250.0,549.8 L 291.7,550.9 L 333.3,572.3 L 375.0,572.7 L 416.7,574.6 L 458.3,567.7 L 500.0,575.8 L 541.7,560.3 L 583.3,545.4 L 625.0,533.2 L 666.7,538.9 L 708.3,542.2 L 750.0,546.8 L 791.7,565.2 L 833.3,578.3 L 875.0,578.1 L 916.7,583.7 L 958.3,576.2 L 1000.0,569.5 L1000,620 L0,620Z" fill="#f6d09c"/><path d="M 0.0,568.4 L 41.7,570.6 L 83.3,554.9 L 125.0,545.0 L 166.7,543.7 L 208.3,559.1 L 250.0,553.8 L 291.7,554.9 L 333.3,576.3 L 375.0,576.7 L 416.7,578.6 L 458.3,571.7 L 500.0,579.8 L 541.7,564.3 L 583.3,549.4 L 625.0,537.2 L 666.7,542.9 L 708.3,546.2 L 750.0,550.8 L 791.7,569.2 L 833.3,582.3 L 875.0,582.1 L 916.7,587.7 L 958.3,580.2 L 1000.0,573.5" fill="none" stroke="#1d151d" stroke-opacity=".15" stroke-width="1.3"/><path d="M 0.0,573.4 L 41.7,575.6 L 83.3,559.9 L 125.0,550.0 L 166.7,548.7 L 208.3,564.1 L 250.0,558.8 L 291.7,559.9 L 333.3,581.3 L 375.0,581.7 L 416.7,583.6 L 458.3,576.7 L 500.0,584.8 L 541.7,569.3 L 583.3,554.4 L 625.0,542.2 L 666.7,547.9 L 708.3,551.2 L 750.0,555.8 L 791.7,574.2 L 833.3,587.3 L 875.0,587.1 L 916.7,592.7 L 958.3,585.2 L 1000.0,578.5" fill="none" stroke="#1d151d" stroke-opacity=".15" stroke-width="1.3"/><path d="M 0.0,580.8 L 41.7,577.1 L 83.3,547.0 L 125.0,548.2 L 166.7,565.7 L 208.3,571.9 L 250.0,577.1 L 291.7,595.2 L 333.3,615.3 L 375.0,592.8 L 416.7,583.3 L 458.3,589.0 L 500.0,578.3 L 541.7,563.9 L 583.3,555.6 L 625.0,564.3 L 666.7,568.3 L 708.3,568.4 L 750.0,584.4 L 791.7,604.5 L 833.3,607.2 L 875.0,593.8 L 916.7,596.1 L 958.3,587.7 L 1000.0,565.8 L1000,620 L0,620Z" fill="#b67f66"/><path d="M 0.0,584.8 L 41.7,581.1 L 83.3,551.0 L 125.0,552.2 L 166.7,569.7 L 208.3,575.9 L 250.0,581.1 L 291.7,599.2 L 333.3,619.3 L 375.0,596.8 L 416.7,587.3 L 458.3,593.0 L 500.0,582.3 L 541.7,567.9 L 583.3,559.6 L 625.0,568.3 L 666.7,572.3 L 708.3,572.4 L 750.0,588.4 L 791.7,608.5 L 833.3,611.2 L 875.0,597.8 L 916.7,600.1 L 958.3,591.7 L 1000.0,569.8" fill="none" stroke="#1d151d" stroke-opacity=".15" stroke-width="1.3"/><path d="M 0.0,589.8 L 41.7,586.1 L 83.3,556.0 L 125.0,557.2 L 166.7,574.7 L 208.3,580.9 L 250.0,586.1 L 291.7,604.2 L 333.3,624.3 L 375.0,601.8 L 416.7,592.3 L 458.3,598.0 L 500.0,587.3 L 541.7,572.9 L 583.3,564.6 L 625.0,573.3 L 666.7,577.3 L 708.3,577.4 L 750.0,593.4 L 791.7,613.5 L 833.3,616.2 L 875.0,602.8 L 916.7,605.1 L 958.3,596.7 L 1000.0,574.8" fill="none" stroke="#1d151d" stroke-opacity=".15" stroke-width="1.3"/><rect width="1000" height="620" fill="url(#grain)" opacity=".11"/></svg>