<svg xmlns="http://www.w3.org/2000/svg" width="3000" height="4500" viewBox="0 0 1000 1500"><title>WASP-4 b travel poster</title><defs><pattern id="grain" width="9" height="11" patternUnits="userSpaceOnUse"><path d="M1 2h1M5 7h1M8 4h1" stroke="#efe1c8" stroke-width=".8"/></pattern></defs><rect width="1000" height="1500" fill="#e9dbbe"/><svg x="30" y="30" width="940" height="1269" viewBox="0 0 1000 1350"><rect width="1000" height="1350" fill="#1d151d"/><circle cx="198" cy="531" r="0.8" fill="#f6d09c" opacity="0.55"/><circle cx="655" cy="575" r="1" fill="#f6d09c" opacity="0.57"/><circle cx="425" cy="17" r="1.3" fill="#f6d09c" opacity="0.44"/><circle cx="356" cy="467" r="1.3" fill="#f6d09c" opacity="0.57"/><circle cx="902" cy="29" r="0.8" fill="#f6d09c" opacity="0.46"/><circle cx="920" cy="165" r="1.3" fill="#f6d09c" opacity="0.39"/><circle cx="911" cy="558" r="0.8" fill="#f6d09c" opacity="0.45"/><circle cx="948" cy="274" r="0.8" fill="#f6d09c" opacity="0.25"/><circle cx="600" cy="120" r="0.8" fill="#f6d09c" opacity="0.39"/><circle cx="454" cy="366" r="0.8" fill="#f6d09c" opacity="0.40"/><circle cx="300" cy="184" r="1.8" fill="#f6d09c" opacity="0.51"/><circle cx="553" cy="479" r="1.3" fill="#f6d09c" opacity="0.47"/><circle cx="395" cy="337" r="1.8" fill="#f6d09c" opacity="0.57"/><circle cx="727" cy="478" r="1" fill="#f6d09c" opacity="0.59"/><circle cx="238" cy="372" r="0.8" fill="#f6d09c" opacity="0.59"/><circle cx="518" cy="28" r="1.3" fill="#f6d09c" opacity="0.60"/><circle cx="875" cy="20" r="1" fill="#f6d09c" opacity="0.41"/><circle cx="257" cy="625" r="1.8" fill="#f6d09c" opacity="0.65"/><circle cx="291" cy="380" r="1.8" fill="#f6d09c" opacity="0.49"/><circle cx="569" cy="546" r="1" fill="#f6d09c" opacity="0.53"/><circle cx="388" cy="453" r="1" fill="#f6d09c" opacity="0.23"/><circle cx="489" cy="299" r="1" fill="#f6d09c" opacity="0.37"/><circle cx="63" cy="407" r="1.3" fill="#f6d09c" opacity="0.15"/><circle cx="51" cy="637" r="1.8" fill="#f6d09c" opacity="0.37"/><circle cx="365" cy="259" r="0.8" fill="#f6d09c" opacity="0.41"/><circle cx="390" cy="316" r="0.8" fill="#f6d09c" opacity="0.65"/><circle cx="110" cy="42" r="0.8" fill="#f6d09c" opacity="0.53"/><circle cx="706" cy="149" r="1.8" fill="#f6d09c" opacity="0.17"/><circle cx="740" cy="189" r="0.8" fill="#f6d09c" opacity="0.49"/><circle cx="770" cy="653" r="1.3" fill="#f6d09c" opacity="0.48"/><circle cx="793" cy="427" r="1.3" fill="#f6d09c" opacity="0.34"/><circle cx="701" cy="35" r="1.8" fill="#f6d09c" opacity="0.21"/><circle cx="721" cy="390" r="1.3" fill="#f6d09c" opacity="0.23"/><circle cx="400" cy="119" r="1.3" fill="#f6d09c" opacity="0.21"/><circle cx="368" cy="305" r="1" fill="#f6d09c" opacity="0.50"/><circle cx="209" cy="540" r="1.3" fill="#f6d09c" opacity="0.54"/><circle cx="840" cy="210" r="1.8" fill="#f6d09c" opacity="0.61"/><circle cx="944" cy="613" r="1.8" fill="#f6d09c" opacity="0.29"/><circle cx="648" cy="582" r="1.3" fill="#f6d09c" opacity="0.21"/><circle cx="234" cy="111" r="1.3" fill="#f6d09c" opacity="0.38"/><circle cx="917" cy="84" r="1.3" fill="#f6d09c" opacity="0.35"/><circle cx="317" cy="413" r="1.3" fill="#f6d09c" opacity="0.64"/><circle cx="604" cy="287" r="1.3" fill="#f6d09c" opacity="0.38"/><circle cx="691" cy="629" r="0.8" fill="#f6d09c" opacity="0.40"/><circle cx="923" cy="192" r="1" fill="#f6d09c" opacity="0.54"/><circle cx="693" cy="391.5" r="134.4" fill="#b67f66" opacity=".09"/><circle cx="693" cy="391.5" r="105" fill="#f6d09c"/><path d="M 0.0,675.0 L 41.7,695.1 L 83.3,696.3 L 125.0,692.0 L 166.7,702.1 L 208.3,692.9 L 250.0,668.0 L 291.7,652.2 L 333.3,668.3 L 375.0,665.1 L 416.7,645.7 L 458.3,666.4 L 500.0,685.0 L 541.7,687.1 L 583.3,694.2 L 625.0,692.7 L 666.7,703.6 L 708.3,674.3 L 750.0,661.9 L 791.7,661.6 L 833.3,647.4 L 875.0,643.3 L 916.7,664.5 L 958.3,677.5 L 1000.0,686.1 L1000,1350 L0,1350Z" fill="#65424a"/><path d="M 0.0,679.0 L 41.7,699.1 L 83.3,700.3 L 125.0,696.0 L 166.7,706.1 L 208.3,696.9 L 250.0,672.0 L 291.7,656.2 L 333.3,672.3 L 375.0,669.1 L 416.7,649.7 L 458.3,670.4 L 500.0,689.0 L 541.7,691.1 L 583.3,698.2 L 625.0,696.7 L 666.7,707.6 L 708.3,678.3 L 750.0,665.9 L 791.7,665.6 L 833.3,651.4 L 875.0,647.3 L 916.7,668.5 L 958.3,681.5 L 1000.0,690.1" fill="none" stroke="#1d151d" stroke-opacity=".15" stroke-width="1.3"/><path d="M 0.0,684.0 L 41.7,704.1 L 83.3,705.3 L 125.0,701.0 L 166.7,711.1 L 208.3,701.9 L 250.0,677.0 L 291.7,661.2 L 333.3,677.3 L 375.0,674.1 L 416.7,654.7 L 458.3,675.4 L 500.0,694.0 L 541.7,696.1 L 583.3,703.2 L 625.0,701.7 L 666.7,712.6 L 708.3,683.3 L 750.0,670.9 L 791.7,670.6 L 833.3,656.4 L 875.0,652.3 L 916.7,673.5 L 958.3,686.5 L 1000.0,695.1" fill="none" stroke="#1d151d" stroke-opacity=".15" stroke-width="1.3"/><path d="M 0.0,744.0 L 41.7,748.9 L 83.3,739.5 L 125.0,728.8 L 166.7,731.8 L 208.3,715.3 L 250.0,701.2 L 291.7,710.4 L 333.3,698.6 L 375.0,703.2 L 416.7,711.3 L 458.3,731.8 L 500.0,748.8 L 541.7,737.4 L 583.3,735.0 L 625.0,733.9 L 666.7,721.4 L 708.3,699.8 L 750.0,697.6 L 791.7,713.5 L 833.3,705.7 L 875.0,701.5 L 916.7,725.0 L 958.3,731.1 L 1000.0,731.6 L1000,1350 L0,1350Z" fill="#b67f66"/><path d="M 0.0,748.0 L 41.7,752.9 L 83.3,743.5 L 125.0,732.8 L 166.7,735.8 L 208.3,719.3 L 250.0,705.2 L 291.7,714.4 L 333.3,702.6 L 375.0,707.2 L 416.7,715.3 L 458.3,735.8 L 500.0,752.8 L 541.7,741.4 L 583.3,739.0 L 625.0,737.9 L 666.7,725.4 L 708.3,703.8 L 750.0,701.6 L 791.7,717.5 L 833.3,709.7 L 875.0,705.5 L 916.7,729.0 L 958.3,735.1 L 1000.0,735.6" fill="none" stroke="#1d151d" stroke-opacity=".15" stroke-width="1.3"/><path d="M 0.0,753.0 L 41.7,757.9 L 83.3,748.5 L 125.0,737.8 L 166.7,740.8 L 208.3,724.3 L 250.0,710.2 L 291.7,719.4 L 333.3,707.6 L 375.0,712.2 L 416.7,720.3 L 458.3,740.8 L 500.0,757.8 L 541.7,746.4 L 583.3,744.0 L 625.0,742.9 L 666.7,730.4 L 708.3,708.8 L 750.0,706.6 L 791.7,722.5 L 833.3,714.7 L 875.0,710.5 L 916.7,734.0 L 958.3,740.1 L 1000.0,740.6" fill="none" stroke="#1d151d" stroke-opacity=".15" stroke-width="1.3"/><path d="M 0.0,790.2 L 41.7,785.8 L 83.3,769.4 L 125.0,771.7 L 166.7,757.0 L 208.3,747.2 L 250.0,747.1 L 291.7,750.6 L 333.3,756.9 L 375.0,759.0 L 416.7,777.8 L 458.3,800.2 L 500.0,785.0 L 541.7,782.9 L 583.3,774.6 L 625.0,767.6 L 666.7,748.1 L 708.3,741.8 L 750.0,741.5 L 791.7,751.1 L 833.3,751.2 L 875.0,769.0 L 916.7,785.2 L 958.3,777.6 L 1000.0,779.8 L1000,1350 L0,1350Z" fill="#f6d09c"/><path d="M 0.0,794.2 L 41.7,789.8 L 83.3,773.4 L 125.0,775.7 L 166.7,761.0 L 208.3,751.2 L 250.0,751.1 L 291.7,754.6 L 333.3,760.9 L 375.0,763.0 L 416.7,781.8 L 458.3,804.2 L 500.0,789.0 L 541.7,786.9 L 583.3,778.6 L 625.0,771.6 L 666.7,752.1 L 708.3,745.8 L 750.0,745.5 L 791.7,755.1 L 833.3,755.2 L 875.0,773.0 L 916.7,789.2 L 958.3,781.6 L 1000.0,783.8" fill="none" stroke="#1d151d" stroke-opacity=".15" stroke-width="1.3"/><path d="M 0.0,799.2 L 41.7,794.8 L 83.3,778.4 L 125.0,780.7 L 166.7,766.0 L 208.3,756.2 L 250.0,756.1 L 291.7,759.6 L 333.3,765.9 L 375.0,768.0 L 416.7,786.8 L 458.3,809.2 L 500.0,794.0 L 541.7,791.9 L 583.3,783.6 L 625.0,776.6 L 666.7,757.1 L 708.3,750.8 L 750.0,750.5 L 791.7,760.1 L 833.3,760.2 L 875.0,778.0 L 916.7,794.2 L 958.3,786.6 L 1000.0,788.8" fill="none" stroke="#1d151d" stroke-opacity=".15" stroke-width="1.3"/><path d="M 0.0,820.6 L 41.7,810.5 L 83.3,808.5 L 125.0,807.7 L 166.7,780.3 L 208.3,793.4 L 250.0,803.5 L 291.7,810.3 L 333.3,810.9 L 375.0,826.4 L 416.7,829.4 L 458.3,832.5 L 500.0,818.6 L 541.7,814.0 L 583.3,810.0 L 625.0,784.4 L 666.7,782.6 L 708.3,790.1 L 750.0,799.5 L 791.7,801.7 L 833.3,813.4 L 875.0,828.1 L 916.7,831.5 L 958.3,817.5 L 1000.0,814.5 L1000,1350 L0,1350Z" fill="#b67f66"/><path d="M 0.0,824.6 L 41.7,814.5 L 83.3,812.5 L 125.0,811.7 L 166.7,784.3 L 208.3,797.4 L 250.0,807.5 L 291.7,814.3 L 333.3,814.9 L 375.0,830.4 L 416.7,833.4 L 458.3,836.5 L 500.0,822.6 L 541.7,818.0 L 583.3,814.0 L 625.0,788.4 L 666.7,786.6 L 708.3,794.1 L 750.0,803.5 L 791.7,805.7 L 833.3,817.4 L 875.0,832.1 L 916.7,835.5 L 958.3,821.5 L 1000.0,818.5" fill="none" stroke="#1d151d" stroke-opacity=".15" stroke-width="1.3"/><path d="M 0.0,829.6 L 41.7,819.5 L 83.3,817.5 L 125.0,816.7 L 166.7,789.3 L 208.3,802.4 L 250.0,812.5 L 291.7,819.3 L 333.3,819.9 L 375.0,835.4 L 416.7,838.4 L 458.3,841.5 L 500.0,827.6 L 541.7,823.0 L 583.3,819.0 L 625.0,793.4 L 666.7,791.6 L 708.3,799.1 L 750.0,808.5 L 791.7,810.7 L 833.3,822.4 L 875.0,837.1 L 916.7,840.5 L 958.3,826.5 L 1000.0,823.5" fill="none" stroke="#1d151d" stroke-opacity=".15" stroke-width="1.3"/><path d="M 0.0,855.4 L 41.7,846.8 L 83.3,849.5 L 125.0,826.1 L 166.7,823.9 L 208.3,846.8 L 250.0,859.0 L 291.7,863.9 L 333.3,867.7 L 375.0,880.4 L 416.7,870.4 L 458.3,856.5 L 500.0,850.6 L 541.7,849.1 L 583.3,845.8 L 625.0,835.6 L 666.7,829.6 L 708.3,851.4 L 750.0,856.7 L 791.7,859.9 L 833.3,873.7 L 875.0,872.1 L 916.7,874.0 L 958.3,856.3 L 1000.0,855.9 L1000,1350 L0,1350Z" fill="#352432"/><path d="M 0.0,859.4 L 41.7,850.8 L 83.3,853.5 L 125.0,830.1 L 166.7,827.9 L 208.3,850.8 L 250.0,863.0 L 291.7,867.9 L 333.3,871.7 L 375.0,884.4 L 416.7,874.4 L 458.3,860.5 L 500.0,854.6 L 541.7,853.1 L 583.3,849.8 L 625.0,839.6 L 666.7,833.6 L 708.3,855.4 L 750.0,860.7 L 791.7,863.9 L 833.3,877.7 L 875.0,876.1 L 916.7,878.0 L 958.3,860.3 L 1000.0,859.9" fill="none" stroke="#1d151d" stroke-opacity=".15" stroke-width="1.3"/><path d="M 0.0,864.4 L 41.7,855.8 L 83.3,858.5 L 125.0,835.1 L 166.7,832.9 L 208.3,855.8 L 250.0,868.0 L 291.7,872.9 L 333.3,876.7 L 375.0,889.4 L 416.7,879.4 L 458.3,865.5 L 500.0,859.6 L 541.7,858.1 L 583.3,854.8 L 625.0,844.6 L 666.7,838.6 L 708.3,860.4 L 750.0,865.7 L 791.7,868.9 L 833.3,882.7 L 875.0,881.1 L 916.7,883.0 L 958.3,865.3 L 1000.0,864.9" fill="none" stroke="#1d151d" stroke-opacity=".15" stroke-width="1.3"/><path d="M 0.0,883.7 L 41.7,879.9 L 83.3,885.1 L 125.0,881.9 L 166.7,883.3 L 208.3,906.6 L 250.0,916.5 L 291.7,907.3 L 333.3,922.2 L 375.0,917.2 L 416.7,906.1 L 458.3,891.2 L 500.0,891.6 L 541.7,892.4 L 583.3,875.5 L 625.0,885.3 L 666.7,901.5 L 708.3,910.9 L 750.0,903.1 L 791.7,919.0 L 833.3,918.3 L 875.0,910.2 L 916.7,897.8 L 958.3,890.8 L 1000.0,891.4 L1000,1350 L0,1350Z" fill="#65424a"/><path d="M 0.0,887.7 L 41.7,883.9 L 83.3,889.1 L 125.0,885.9 L 166.7,887.3 L 208.3,910.6 L 250.0,920.5 L 291.7,911.3 L 333.3,926.2 L 375.0,921.2 L 416.7,910.1 L 458.3,895.2 L 500.0,895.6 L 541.7,896.4 L 583.3,879.5 L 625.0,889.3 L 666.7,905.5 L 708.3,914.9 L 750.0,907.1 L 791.7,923.0 L 833.3,922.3 L 875.0,914.2 L 916.7,901.8 L 958.3,894.8 L 1000.0,895.4" fill="none" stroke="#1d151d" stroke-opacity=".15" stroke-width="1.3"/><path d="M 0.0,892.7 L 41.7,888.9 L 83.3,894.1 L 125.0,890.9 L 166.7,892.3 L 208.3,915.6 L 250.0,925.5 L 291.7,916.3 L 333.3,931.2 L 375.0,926.2 L 416.7,915.1 L 458.3,900.2 L 500.0,900.6 L 541.7,901.4 L 583.3,884.5 L 625.0,894.3 L 666.7,910.5 L 708.3,919.9 L 750.0,912.1 L 791.7,928.0 L 833.3,927.3 L 875.0,919.2 L 916.7,906.8 L 958.3,899.8 L 1000.0,900.4" fill="none" stroke="#1d151d" stroke-opacity=".15" stroke-width="1.3"/><path d="M 0.0,913.4 L 41.7,934.3 L 83.3,934.6 L 125.0,931.2 L 166.7,952.6 L 208.3,960.1 L 250.0,956.9 L 291.7,955.7 L 333.3,965.5 L 375.0,953.9 L 416.7,930.0 L 458.3,923.6 L 500.0,936.1 L 541.7,919.2 L 583.3,928.5 L 625.0,944.6 L 666.7,957.5 L 708.3,961.6 L 750.0,966.0 L 791.7,965.4 L 833.3,956.9 L 875.0,939.6 L 916.7,927.2 L 958.3,938.5 L 1000.0,923.5 L1000,1350 L0,1350Z" fill="#b67f66"/><path d="M 0.0,917.4 L 41.7,938.3 L 83.3,938.6 L 125.0,935.2 L 166.7,956.6 L 208.3,964.1 L 250.0,960.9 L 291.7,959.7 L 333.3,969.5 L 375.0,957.9 L 416.7,934.0 L 458.3,927.6 L 500.0,940.1 L 541.7,923.2 L 583.3,932.5 L 625.0,948.6 L 666.7,961.5 L 708.3,965.6 L 750.0,970.0 L 791.7,969.4 L 833.3,960.9 L 875.0,943.6 L 916.7,931.2 L 958.3,942.5 L 1000.0,927.5" fill="none" stroke="#1d151d" stroke-opacity=".15" stroke-width="1.3"/><path d="M 0.0,922.4 L 41.7,943.3 L 83.3,943.6 L 125.0,940.2 L 166.7,961.6 L 208.3,969.1 L 250.0,965.9 L 291.7,964.7 L 333.3,974.5 L 375.0,962.9 L 416.7,939.0 L 458.3,932.6 L 500.0,945.1 L 541.7,928.2 L 583.3,937.5 L 625.0,953.6 L 666.7,966.5 L 708.3,970.6 L 750.0,975.0 L 791.7,974.4 L 833.3,965.9 L 875.0,948.6 L 916.7,936.2 L 958.3,947.5 L 1000.0,932.5" fill="none" stroke="#1d151d" stroke-opacity=".15" stroke-width="1.3"/><path d="M 0.0,978.8 L 41.7,986.9 L 83.3,982.3 L 125.0,994.4 L 166.7,1021.1 L 208.3,1018.2 L 250.0,1008.9 L 291.7,1000.7 L 333.3,996.8 L 375.0,980.0 L 416.7,962.9 L 458.3,964.0 L 500.0,980.7 L 541.7,974.5 L 583.3,987.8 L 625.0,1004.9 L 666.7,1020.9 L 708.3,1004.1 L 750.0,1006.2 L 791.7,1001.5 L 833.3,984.5 L 875.0,961.8 L 916.7,981.2 L 958.3,984.0 L 1000.0,972.1 L1000,1350 L0,1350Z" fill="#f6d09c"/><path d="M 0.0,982.8 L 41.7,990.9 L 83.3,986.3 L 125.0,998.4 L 166.7,1025.1 L 208.3,1022.2 L 250.0,1012.9 L 291.7,1004.7 L 333.3,1000.8 L 375.0,984.0 L 416.7,966.9 L 458.3,968.0 L 500.0,984.7 L 541.7,978.5 L 583.3,991.8 L 625.0,1008.9 L 666.7,1024.9 L 708.3,1008.1 L 750.0,1010.2 L 791.7,1005.5 L 833.3,988.5 L 875.0,965.8 L 916.7,985.2 L 958.3,988.0 L 1000.0,976.1" fill="none" stroke="#1d151d" stroke-opacity=".15" stroke-width="1.3"/><path d="M 0.0,987.8 L 41.7,995.9 L 83.3,991.3 L 125.0,1003.4 L 166.7,1030.1 L 208.3,1027.2 L 250.0,1017.9 L 291.7,1009.7 L 333.3,1005.8 L 375.0,989.0 L 416.7,971.9 L 458.3,973.0 L 500.0,989.7 L 541.7,983.5 L 583.3,996.8 L 625.0,1013.9 L 666.7,1029.9 L 708.3,1013.1 L 750.0,1015.2 L 791.7,1010.5 L 833.3,993.5 L 875.0,970.8 L 916.7,990.2 L 958.3,993.0 L 1000.0,981.1" fill="none" stroke="#1d151d" stroke-opacity=".15" stroke-width="1.3"/><path d="M 0.0,1034.5 L 41.7,1036.1 L 83.3,1037.4 L 125.0,1055.3 L 166.7,1066.2 L 208.3,1044.8 L 250.0,1034.7 L 291.7,1036.3 L 333.3,1017.2 L 375.0,1001.1 L 416.7,1003.0 L 458.3,1033.4 L 500.0,1028.2 L 541.7,1036.5 L 583.3,1061.3 L 625.0,1071.1 L 666.7,1060.2 L 708.3,1048.9 L 750.0,1045.2 L 791.7,1029.9 L 833.3,1018.5 L 875.0,1016.4 L 916.7,1021.0 L 958.3,1020.7 L 1000.0,1027.1 L1000,1350 L0,1350Z" fill="#b67f66"/><path d="M 0.0,1038.5 L 41.7,1040.1 L 83.3,1041.4 L 125.0,1059.3 L 166.7,1070.2 L 208.3,1048.8 L 250.0,1038.7 L 291.7,1040.3 L 333.3,1021.2 L 375.0,1005.1 L 416.7,1007.0 L 458.3,1037.4 L 500.0,1032.2 L 541.7,1040.5 L 583.3,1065.3 L 625.0,1075.1 L 666.7,1064.2 L 708.3,1052.9 L 750.0,1049.2 L 791.7,1033.9 L 833.3,1022.5 L 875.0,1020.4 L 916.7,1025.0 L 958.3,1024.7 L 1000.0,1031.1" fill="none" stroke="#1d151d" stroke-opacity=".15" stroke-width="1.3"/><path d="M 0.0,1043.5 L 41.7,1045.1 L 83.3,1046.4 L 125.0,1064.3 L 166.7,1075.2 L 208.3,1053.8 L 250.0,1043.7 L 291.7,1045.3 L 333.3,1026.2 L 375.0,1010.1 L 416.7,1012.0 L 458.3,1042.4 L 500.0,1037.2 L 541.7,1045.5 L 583.3,1070.3 L 625.0,1080.1 L 666.7,1069.2 L 708.3,1057.9 L 750.0,1054.2 L 791.7,1038.9 L 833.3,1027.5 L 875.0,1025.4 L 916.7,1030.0 L 958.3,1029.7 L 1000.0,1036.1" fill="none" stroke="#1d151d" stroke-opacity=".15" stroke-width="1.3"/><path d="M 0.0,1086.9 L 41.7,1095.4 L 83.3,1107.8 L 125.0,1111.7 L 166.7,1099.7 L 208.3,1077.4 L 250.0,1074.9 L 291.7,1063.9 L 333.3,1060.9 L 375.0,1049.4 L 416.7,1077.4 L 458.3,1082.5 L 500.0,1080.4 L 541.7,1090.5 L 583.3,1108.6 L 625.0,1089.6 L 666.7,1079.1 L 708.3,1080.4 L 750.0,1075.0 L 791.7,1051.3 L 833.3,1051.5 L 875.0,1064.2 L 916.7,1076.6 L 958.3,1076.3 L 1000.0,1085.5 L1000,1350 L0,1350Z" fill="#352432"/><path d="M 0.0,1090.9 L 41.7,1099.4 L 83.3,1111.8 L 125.0,1115.7 L 166.7,1103.7 L 208.3,1081.4 L 250.0,1078.9 L 291.7,1067.9 L 333.3,1064.9 L 375.0,1053.4 L 416.7,1081.4 L 458.3,1086.5 L 500.0,1084.4 L 541.7,1094.5 L 583.3,1112.6 L 625.0,1093.6 L 666.7,1083.1 L 708.3,1084.4 L 750.0,1079.0 L 791.7,1055.3 L 833.3,1055.5 L 875.0,1068.2 L 916.7,1080.6 L 958.3,1080.3 L 1000.0,1089.5" fill="none" stroke="#1d151d" stroke-opacity=".15" stroke-width="1.3"/><path d="M 0.0,1095.9 L 41.7,1104.4 L 83.3,1116.8 L 125.0,1120.7 L 166.7,1108.7 L 208.3,1086.4 L 250.0,1083.9 L 291.7,1072.9 L 333.3,1069.9 L 375.0,1058.4 L 416.7,1086.4 L 458.3,1091.5 L 500.0,1089.4 L 541.7,1099.5 L 583.3,1117.6 L 625.0,1098.6 L 666.7,1088.1 L 708.3,1089.4 L 750.0,1084.0 L 791.7,1060.3 L 833.3,1060.5 L 875.0,1073.2 L 916.7,1085.6 L 958.3,1085.3 L 1000.0,1094.5" fill="none" stroke="#1d151d" stroke-opacity=".15" stroke-width="1.3"/><path d="M 0.0,1133.2 L 41.7,1138.3 L 83.3,1144.5 L 125.0,1140.4 L 166.7,1117.7 L 208.3,1113.8 L 250.0,1121.1 L 291.7,1102.6 L 333.3,1095.6 L 375.0,1118.3 L 416.7,1135.9 L 458.3,1138.9 L 500.0,1134.7 L 541.7,1145.7 L 583.3,1140.4 L 625.0,1125.8 L 666.7,1118.8 L 708.3,1118.4 L 750.0,1105.7 L 791.7,1090.3 L 833.3,1108.5 L 875.0,1126.5 L 916.7,1133.3 L 958.3,1130.3 L 1000.0,1154.4 L1000,1350 L0,1350Z" fill="#65424a"/><path d="M 0.0,1137.2 L 41.7,1142.3 L 83.3,1148.5 L 125.0,1144.4 L 166.7,1121.7 L 208.3,1117.8 L 250.0,1125.1 L 291.7,1106.6 L 333.3,1099.6 L 375.0,1122.3 L 416.7,1139.9 L 458.3,1142.9 L 500.0,1138.7 L 541.7,1149.7 L 583.3,1144.4 L 625.0,1129.8 L 666.7,1122.8 L 708.3,1122.4 L 750.0,1109.7 L 791.7,1094.3 L 833.3,1112.5 L 875.0,1130.5 L 916.7,1137.3 L 958.3,1134.3 L 1000.0,1158.4" fill="none" stroke="#1d151d" stroke-opacity=".15" stroke-width="1.3"/><path d="M 0.0,1142.2 L 41.7,1147.3 L 83.3,1153.5 L 125.0,1149.4 L 166.7,1126.7 L 208.3,1122.8 L 250.0,1130.1 L 291.7,1111.6 L 333.3,1104.6 L 375.0,1127.3 L 416.7,1144.9 L 458.3,1147.9 L 500.0,1143.7 L 541.7,1154.7 L 583.3,1149.4 L 625.0,1134.8 L 666.7,1127.8 L 708.3,1127.4 L 750.0,1114.7 L 791.7,1099.3 L 833.3,1117.5 L 875.0,1135.5 L 916.7,1142.3 L 958.3,1139.3 L 1000.0,1163.4" fill="none" stroke="#1d151d" stroke-opacity=".15" stroke-width="1.3"/><path d="M 0.0,1185.8 L 41.7,1181.4 L 83.3,1186.4 L 125.0,1160.7 L 166.7,1148.2 L 208.3,1148.5 L 250.0,1165.1 L 291.7,1153.5 L 333.3,1159.7 L 375.0,1182.1 L 416.7,1190.4 L 458.3,1182.2 L 500.0,1186.2 L 541.7,1194.6 L 583.3,1170.3 L 625.0,1154.9 L 666.7,1160.1 L 708.3,1160.2 L 750.0,1150.8 L 791.7,1149.1 L 833.3,1175.5 L 875.0,1184.7 L 916.7,1183.6 L 958.3,1191.2 L 1000.0,1200.8 L1000,1350 L0,1350Z" fill="#b67f66"/><path d="M 0.0,1189.8 L 41.7,1185.4 L 83.3,1190.4 L 125.0,1164.7 L 166.7,1152.2 L 208.3,1152.5 L 250.0,1169.1 L 291.7,1157.5 L 333.3,1163.7 L 375.0,1186.1 L 416.7,1194.4 L 458.3,1186.2 L 500.0,1190.2 L 541.7,1198.6 L 583.3,1174.3 L 625.0,1158.9 L 666.7,1164.1 L 708.3,1164.2 L 750.0,1154.8 L 791.7,1153.1 L 833.3,1179.5 L 875.0,1188.7 L 916.7,1187.6 L 958.3,1195.2 L 1000.0,1204.8" fill="none" stroke="#1d151d" stroke-opacity=".15" stroke-width="1.3"/><path d="M 0.0,1194.8 L 41.7,1190.4 L 83.3,1195.4 L 125.0,1169.7 L 166.7,1157.2 L 208.3,1157.5 L 250.0,1174.1 L 291.7,1162.5 L 333.3,1168.7 L 375.0,1191.1 L 416.7,1199.4 L 458.3,1191.2 L 500.0,1195.2 L 541.7,1203.6 L 583.3,1179.3 L 625.0,1163.9 L 666.7,1169.1 L 708.3,1169.2 L 750.0,1159.8 L 791.7,1158.1 L 833.3,1184.5 L 875.0,1193.7 L 916.7,1192.6 L 958.3,1200.2 L 1000.0,1209.8" fill="none" stroke="#1d151d" stroke-opacity=".15" stroke-width="1.3"/><path d="M 0.0,1223.0 L 41.7,1222.8 L 83.3,1209.2 L 125.0,1194.3 L 166.7,1186.6 L 208.3,1204.6 L 250.0,1206.3 L 291.7,1207.8 L 333.3,1229.6 L 375.0,1244.1 L 416.7,1237.9 L 458.3,1220.1 L 500.0,1232.9 L 541.7,1216.6 L 583.3,1199.7 L 625.0,1194.6 L 666.7,1210.9 L 708.3,1193.9 L 750.0,1199.8 L 791.7,1219.0 L 833.3,1237.9 L 875.0,1222.4 L 916.7,1237.4 L 958.3,1233.4 L 1000.0,1221.8 L1000,1350 L0,1350Z" fill="#f6d09c"/><path d="M 0.0,1227.0 L 41.7,1226.8 L 83.3,1213.2 L 125.0,1198.3 L 166.7,1190.6 L 208.3,1208.6 L 250.0,1210.3 L 291.7,1211.8 L 333.3,1233.6 L 375.0,1248.1 L 416.7,1241.9 L 458.3,1224.1 L 500.0,1236.9 L 541.7,1220.6 L 583.3,1203.7 L 625.0,1198.6 L 666.7,1214.9 L 708.3,1197.9 L 750.0,1203.8 L 791.7,1223.0 L 833.3,1241.9 L 875.0,1226.4 L 916.7,1241.4 L 958.3,1237.4 L 1000.0,1225.8" fill="none" stroke="#1d151d" stroke-opacity=".15" stroke-width="1.3"/><path d="M 0.0,1232.0 L 41.7,1231.8 L 83.3,1218.2 L 125.0,1203.3 L 166.7,1195.6 L 208.3,1213.6 L 250.0,1215.3 L 291.7,1216.8 L 333.3,1238.6 L 375.0,1253.1 L 416.7,1246.9 L 458.3,1229.1 L 500.0,1241.9 L 541.7,1225.6 L 583.3,1208.7 L 625.0,1203.6 L 666.7,1219.9 L 708.3,1202.9 L 750.0,1208.8 L 791.7,1228.0 L 833.3,1246.9 L 875.0,1231.4 L 916.7,1246.4 L 958.3,1242.4 L 1000.0,1230.8" fill="none" stroke="#1d151d" stroke-opacity=".15" stroke-width="1.3"/><path d="M 0.0,1261.0 L 41.7,1250.1 L 83.3,1228.3 L 125.0,1232.5 L 166.7,1250.8 L 208.3,1256.1 L 250.0,1257.8 L 291.7,1272.9 L 333.3,1290.1 L 375.0,1285.0 L 416.7,1276.3 L 458.3,1268.4 L 500.0,1260.7 L 541.7,1246.0 L 583.3,1228.7 L 625.0,1253.8 L 666.7,1248.3 L 708.3,1248.5 L 750.0,1266.4 L 791.7,1283.0 L 833.3,1280.8 L 875.0,1271.1 L 916.7,1272.8 L 958.3,1268.9 L 1000.0,1251.4 L1000,1350 L0,1350Z" fill="#b67f66"/><path d="M 0.0,1265.0 L 41.7,1254.1 L 83.3,1232.3 L 125.0,1236.5 L 166.7,1254.8 L 208.3,1260.1 L 250.0,1261.8 L 291.7,1276.9 L 333.3,1294.1 L 375.0,1289.0 L 416.7,1280.3 L 458.3,1272.4 L 500.0,1264.7 L 541.7,1250.0 L 583.3,1232.7 L 625.0,1257.8 L 666.7,1252.3 L 708.3,1252.5 L 750.0,1270.4 L 791.7,1287.0 L 833.3,1284.8 L 875.0,1275.1 L 916.7,1276.8 L 958.3,1272.9 L 1000.0,1255.4" fill="none" stroke="#1d151d" stroke-opacity=".15" stroke-width="1.3"/><path d="M 0.0,1270.0 L 41.7,1259.1 L 83.3,1237.3 L 125.0,1241.5 L 166.7,1259.8 L 208.3,1265.1 L 250.0,1266.8 L 291.7,1281.9 L 333.3,1299.1 L 375.0,1294.0 L 416.7,1285.3 L 458.3,1277.4 L 500.0,1269.7 L 541.7,1255.0 L 583.3,1237.7 L 625.0,1262.8 L 666.7,1257.3 L 708.3,1257.5 L 750.0,1275.4 L 791.7,1292.0 L 833.3,1289.8 L 875.0,1280.1 L 916.7,1281.8 L 958.3,1277.9 L 1000.0,1260.4" fill="none" stroke="#1d151d" stroke-opacity=".15" stroke-width="1.3"/><rect width="1000" height="1350" fill="url(#grain)" opacity=".11"/></svg><text x="500" y="1392" font-family="Georgia,serif" font-size="62" text-anchor="middle" fill="#182525">WASP-4 b</text><path d="M390 1435H610" stroke="#8a806d" stroke-width="2"/></svg>